<?xml version="1.0" standalone="no"?><!DOCTYPE svg PUBLIC "-//W3C//DTD SVG 1.1//EN" "http://www.w3.org/Graphics/SVG/1.1/DTD/svg11.dtd"><svg t="1617802329362" class="icon" viewBox="0 0 1024 1024" version="1.1" xmlns="http://www.w3.org/2000/svg" p-id="16521" xmlns:xlink="http://www.w3.org/1999/xlink" width="200" height="200"><defs><style type="text/css"></style></defs><path d="M812.898462 482.067692l92.947692-67.741538-23.630769-28.356923h-119.729231zM215.827692 482.067692l-92.947692-67.741538 25.206154-28.356923h118.153846z" fill="#bfbfbf" p-id="16522"></path><path d="M849.132308 349.735385l42.535384 50.412307h-37.80923s-23.630769 3.150769-31.507693 31.507693c-3.150769 14.178462-22.055385 122.88-39.384615 233.156923L567.138462 519.876923c1.575385-4.726154 3.150769-11.027692 3.150769-15.753846 0-7.876923-1.575385-17.329231-6.301539-23.630769l168.566154-154.387693c33.083077 14.178462 80.344615 28.356923 103.975385 28.356923 3.150769-1.575385 7.876923-3.150769 12.603077-4.726153zM206.375385 431.655385c-7.876923-28.356923-31.507692-31.507692-31.507693-31.507693H135.483077l42.535385-50.412307c4.726154 1.575385 7.876923 3.150769 12.603076 3.150769 23.630769 0 70.892308-15.753846 105.55077-29.932308l168.566154 154.387692c-3.150769 7.876923-6.301538 15.753846-6.301539 23.63077 0 6.301538 1.575385 11.027692 3.150769 17.32923l-214.252307 144.935385c-18.904615-108.701538-36.233846-217.403077-40.96-231.581538zM710.498462 935.778462h-393.846154c-17.329231 0-31.507692-14.178462-31.507693-31.507693 0 0-15.753846-97.673846-33.083077-204.8l226.855385-152.812307c9.452308 7.876923 22.055385 12.603077 34.658462 12.603076 12.603077 0 25.206154-4.726154 34.658461-12.603076l226.855385 152.812307c-17.329231 107.126154-33.083077 204.8-33.083077 204.8 0 17.329231-12.603077 31.507692-31.507692 31.507693z" fill="#bfbfbf" p-id="16523"></path><path d="M710.498462 904.270769s15.753846-97.673846 33.083076-204.8c1.575385-11.027692 3.150769-23.630769 4.726154-34.658461 18.904615-110.276923 36.233846-218.978462 39.384616-233.156923 7.876923-28.356923 31.507692-31.507692 31.507692-31.507693h31.507692s-23.630769 3.150769-31.507692 31.507693c-3.150769 14.178462-22.055385 122.88-39.384615 233.156923-1.575385 11.027692-3.150769 23.630769-4.726154 34.658461-17.329231 107.126154-33.083077 204.8-33.083077 204.8 0 17.329231-14.178462 31.507692-31.507692 31.507693h-31.507693c18.904615 0 31.507692-14.178462 31.507693-31.507693z" fill="#bfbfbf" p-id="16524"></path><path d="M316.652308 904.270769s-15.753846-97.673846-33.083077-204.8c-1.575385-11.027692-3.150769-23.630769-4.726154-34.658461-18.904615-110.276923-36.233846-218.978462-39.384615-233.156923-7.876923-28.356923-31.507692-31.507692-31.507693-31.507693h-31.507692s23.630769 3.150769 31.507692 31.507693c3.150769 14.178462 22.055385 122.88 39.384616 233.156923 1.575385 11.027692 3.150769 23.630769 4.726153 34.658461 17.329231 107.126154 33.083077 204.8 33.083077 204.8 0 17.329231 14.178462 31.507692 31.507693 31.507693h31.507692c-17.329231 0-31.507692-14.178462-31.507692-31.507693z" fill="#bfbfbf" p-id="16525"></path><path d="M475.766154 541.932308l4.726154 4.726154-226.855385 152.812307c-1.575385-11.027692-3.150769-23.630769-4.726154-34.658461L461.587692 519.876923c3.150769 7.876923 7.876923 15.753846 14.178462 22.055385zM552.96 541.932308c6.301538-6.301538 11.027692-14.178462 14.178462-22.055385l214.252307 144.935385c-1.575385 11.027692-3.150769 23.630769-4.726154 34.658461l-226.855384-152.812307c1.575385-3.150769 1.575385-4.726154 3.150769-4.726154zM327.68 310.350769l159.113846 144.935385c-4.726154 1.575385-7.876923 4.726154-11.027692 7.876923-4.726154 4.726154-7.876923 9.452308-11.027692 14.178461l-168.566154-154.387692c12.603077-4.726154 23.630769-9.452308 31.507692-12.603077zM732.553846 324.529231l-168.566154 154.387692c-3.150769-6.301538-6.301538-11.027692-11.027692-15.753846-3.150769-3.150769-6.301538-6.301538-11.027692-7.876923l159.113846-144.935385c7.876923 3.150769 18.904615 7.876923 31.507692 14.178462z" fill="#bfbfbf" p-id="16526"></path><path d="M932.627692 277.267692l78.769231 91.372308-78.769231 78.769231-40.96-47.261539-42.535384-50.412307c25.206154-11.027692 63.015385-48.836923 83.495384-72.467693z" fill="#bfbfbf" p-id="16527"></path><path d="M809.747692 162.264615l138.633846 96.098462s-6.301538 7.876923-15.753846 17.329231c-20.48 23.630769-56.713846 61.44-83.495384 72.467692-4.726154 1.575385-7.876923 3.150769-12.603077 3.150769-22.055385 0-69.316923-15.753846-103.975385-28.356923-12.603077-4.726154-23.630769-11.027692-31.507692-14.178461-3.150769-1.575385-4.726154-3.150769-6.301539-4.726154-11.027692-11.027692 11.027692-55.138462 12.603077-56.713846 7.876923-1.575385 15.753846-3.150769 18.904616-6.301539 28.356923-18.904615 63.015385-55.138462 83.495384-78.769231z" fill="#bfbfbf" p-id="16528"></path><path d="M707.347692 248.910769c-31.507692 3.150769-81.92-9.452308-91.372307-22.055384-1.575385-1.575385-1.575385-4.726154-1.575385-9.452308-3.150769-26.781538 11.027692-100.824615 17.329231-124.455385 1.575385-4.726154 1.575385-7.876923 1.575384-7.876923l193.772308 58.289231s-6.301538 7.876923-17.329231 20.48c-20.48 23.630769-55.138462 59.864615-81.92 80.344615-4.726154 1.575385-12.603077 3.150769-20.48 4.726154z" fill="#bfbfbf" p-id="16529"></path><path d="M598.646154 218.978462c-15.753846 4.726154-53.563077 7.876923-83.495385 7.876923s-69.316923-3.150769-85.070769-7.876923h-14.178462c3.150769-28.356923-12.603077-105.550769-17.32923-127.606154l15.753846-1.575385c20.48-3.150769 64.590769-4.726154 100.824615-4.726154 36.233846 0 80.344615 1.575385 100.824616 4.726154l15.753846 4.726154c-4.726154 25.206154-20.48 97.673846-17.329231 124.455385h-15.753846z" fill="#bfbfbf" p-id="16530"></path><path d="M513.575385 526.178462c12.603077 0 23.630769-11.027692 23.630769-23.63077s-11.027692-23.630769-23.630769-23.630769-23.630769 11.027692-23.63077 23.630769 11.027692 23.630769 23.63077 23.63077z m-51.987693-6.301539c-1.575385-4.726154-3.150769-11.027692-3.150769-17.329231 0-7.876923 1.575385-17.329231 6.301539-23.630769 3.150769-6.301538 6.301538-11.027692 11.027692-14.178461 3.150769-3.150769 6.301538-6.301538 11.027692-7.876924 7.876923-4.726154 17.329231-7.876923 28.356923-7.876923s20.48 3.150769 28.356923 7.876923c4.726154 1.575385 7.876923 4.726154 11.027693 7.876924 4.726154 4.726154 7.876923 9.452308 11.027692 15.753846 3.150769 7.876923 6.301538 15.753846 6.301538 23.630769 0 6.301538-1.575385 11.027692-3.150769 15.753846-3.150769 7.876923-7.876923 15.753846-14.178461 22.055385-1.575385 1.575385-3.150769 3.150769-4.726154 3.150769-9.452308 7.876923-22.055385 12.603077-34.658462 12.603077-12.603077 0-25.206154-4.726154-34.658461-12.603077l-4.726154-4.726154c-6.301538-4.726154-11.027692-12.603077-14.178462-20.48z" fill="#bfbfbf" p-id="16531"></path><path d="M513.575385 502.547692m-23.63077 0a23.630769 23.630769 0 1 0 47.261539 0 23.630769 23.630769 0 1 0-47.261539 0Z" fill="#bfbfbf" p-id="16532"></path><path d="M430.08 218.978462c15.753846 4.726154 55.138462 7.876923 85.070769 7.876923 29.932308 0 67.741538-3.150769 83.495385-7.876923l15.753846-1.575385c0 4.726154 1.575385 6.301538 3.150769 7.876923 9.452308 12.603077 59.864615 25.206154 91.372308 22.055385-1.575385 1.575385-22.055385 45.686154-12.603077 56.713846 1.575385 1.575385 3.150769 3.150769 6.301538 4.726154l-159.113846 144.935384c-7.876923-4.726154-17.329231-7.876923-28.356923-7.876923s-20.48 3.150769-28.356923 7.876923l-159.113846-144.935384c1.575385-1.575385 4.726154-3.150769 4.726154-3.15077 11.027692-11.027692-12.603077-56.713846-12.603077-56.713846 31.507692 3.150769 83.495385-9.452308 92.947692-22.055384 1.575385-1.575385 1.575385-4.726154 3.150769-7.876923h14.178462z" fill="#bfbfbf" p-id="16533"></path><path d="M598.646154 218.978462l15.753846-1.575385V189.046154v-3.150769l-15.753846 1.575384c-15.753846 4.726154-53.563077 7.876923-83.495385 7.876923s-69.316923-3.150769-85.070769-7.876923h-15.753846v3.150769c1.575385 11.027692 1.575385 20.48 0 28.356924h14.178461c15.753846 4.726154 55.138462 7.876923 85.07077 7.876923 29.932308 0 67.741538-3.150769 85.070769-7.876923z" fill="#bfbfbf" p-id="16534"></path><path d="M94.523077 277.267692c20.48 23.630769 58.289231 61.44 83.495385 72.467693l-42.535385 50.412307-40.96 47.261539-78.769231-78.769231 78.769231-91.372308z" fill="#bfbfbf" p-id="16535"></path><path d="M319.803077 248.910769s23.630769 45.686154 12.603077 56.713846c-1.575385 1.575385-3.150769 1.575385-4.726154 3.15077-6.301538 3.150769-17.329231 9.452308-31.507692 14.178461-33.083077 14.178462-81.92 29.932308-105.55077 29.932308-3.150769 0-7.876923-1.575385-12.603076-3.150769-26.781538-11.027692-63.015385-48.836923-83.495385-72.467693-9.452308-11.027692-15.753846-17.329231-15.753846-17.32923l138.633846-96.098462h1.575385c20.48 22.055385 55.138462 59.864615 83.495384 80.344615 3.150769 1.575385 9.452308 3.150769 17.329231 4.726154z" fill="#bfbfbf" p-id="16536"></path><path d="M94.523077 277.267692l-14.178462 17.329231c20.48 23.630769 56.713846 61.44 81.92 70.892308h1.575385l14.178462-15.753846c-25.206154-11.027692-63.015385-48.836923-83.495385-72.467693z" fill="#bfbfbf" p-id="16537"></path><path d="M80.344615 294.596923l-63.015384 74.043077 15.753846 15.753846 63.015385-74.043077c-6.301538-4.726154-11.027692-11.027692-15.753847-15.753846z" fill="#bfbfbf" p-id="16538"></path><path d="M396.996923 91.372308c4.726154 22.055385 20.48 99.249231 17.329231 127.606154 0 4.726154-1.575385 6.301538-3.150769 7.876923-9.452308 12.603077-61.44 25.206154-92.947693 22.055384-7.876923 0-14.178462-3.150769-17.32923-6.301538-28.356923-20.48-63.015385-58.289231-83.495385-80.344616-11.027692-11.027692-17.329231-18.904615-17.329231-18.904615L393.846154 85.070769c1.575385 0 3.150769 1.575385 3.150769 6.301539z" fill="#bfbfbf" p-id="16539"></path><path d="M215.827692 159.113846l184.32-53.563077c-1.575385-4.726154-1.575385-9.452308-3.150769-14.178461 0-3.150769-1.575385-6.301538-1.575385-6.301539L201.649231 143.36l14.178461 15.753846z" fill="#bfbfbf" p-id="16540"></path><path d="M319.803077 248.910769c-7.876923 0-14.178462-3.150769-17.329231-6.301538-28.356923-20.48-63.015385-58.289231-83.495384-80.344616h-1.575385l-17.329231 12.603077 3.150769 3.15077c20.48 22.055385 55.138462 59.864615 83.495385 80.344615 4.726154 3.150769 11.027692 4.726154 17.329231 6.301538h22.055384c-3.150769-9.452308-6.301538-15.753846-6.301538-15.753846z" fill="#bfbfbf" p-id="16541"></path><path d="M203.224615 178.018462l-3.150769-3.15077L78.769231 259.938462l15.753846 17.32923 119.729231-86.646154c-3.150769-4.726154-7.876923-9.452308-11.027693-12.603076z" fill="#bfbfbf" p-id="16542"></path><path d="M934.203077 277.267692l14.178461 17.329231c-20.48 23.630769-56.713846 61.44-81.92 70.892308h-1.575384l-14.178462-15.753846c25.206154-11.027692 63.015385-48.836923 83.495385-72.467693z" fill="#bfbfbf" p-id="16543"></path><path d="M948.381538 294.596923l63.015385 74.043077-15.753846 15.753846-63.015385-74.043077c6.301538-4.726154 11.027692-11.027692 15.753846-15.753846zM812.898462 159.113846L628.578462 103.975385c0-4.726154 1.575385-9.452308 3.150769-12.603077 0-3.150769 1.575385-6.301538 1.575384-6.301539l193.772308 58.289231-14.178461 15.753846zM708.923077 248.910769c7.876923 0 14.178462-3.150769 17.329231-6.301538 28.356923-20.48 63.015385-58.289231 83.495384-80.344616h1.575385l17.329231 12.603077-3.15077 3.15077c-20.48 22.055385-55.138462 59.864615-83.495384 80.344615-4.726154 3.150769-11.027692 4.726154-17.329231 6.301538h-22.055385c3.150769-9.452308 6.301538-15.753846 6.301539-15.753846z" fill="#bfbfbf" p-id="16544"></path><path d="M825.501538 178.018462l3.15077-3.15077 121.304615 85.07077-15.753846 17.32923-119.729231-86.646154c3.150769-4.726154 7.876923-9.452308 11.027692-12.603076z" fill="#bfbfbf" p-id="16545"></path><path d="M775.089231 376.516923c-4.726154 0-7.876923-3.150769-7.876923-7.876923s3.150769-7.876923 7.876923-7.876923 7.876923 3.150769 7.876923 7.876923-4.726154 7.876923-7.876923 7.876923zM255.212308 376.516923c-4.726154 0-7.876923-3.150769-7.876923-7.876923s3.150769-7.876923 7.876923-7.876923 7.876923 3.150769 7.876923 7.876923-4.726154 7.876923-7.876923 7.876923zM513.575385 234.732308c-31.507692 0-70.892308-3.150769-86.646154-7.876923-4.726154-1.575385-6.301538-6.301538-4.726154-9.452308 1.575385-4.726154 4.726154-6.301538 9.452308-4.726154 15.753846 4.726154 53.563077 7.876923 83.495384 7.876923s66.166154-3.150769 81.92-7.876923c4.726154-1.575385 7.876923 1.575385 9.452308 6.301539 1.575385 4.726154-1.575385 7.876923-6.301539 9.452307-15.753846 3.150769-55.138462 6.301538-86.646153 6.301539zM513.575385 266.24c-34.658462 0-77.193846-4.726154-97.673847-9.452308-4.726154-1.575385-6.301538-6.301538-4.726153-9.452307 1.575385-4.726154 4.726154-6.301538 9.452307-4.726154 18.904615 4.726154 59.864615 9.452308 92.947693 9.452307s74.043077-4.726154 92.947692-9.452307c4.726154-1.575385 7.876923 1.575385 9.452308 4.726154 1.575385 4.726154-1.575385 7.876923-4.726154 9.452307-18.904615 4.726154-61.44 9.452308-97.673846 9.452308z" fill="#bfbfbf" p-id="16546"></path><path d="M329.255385 256.787692h-11.027693c-9.452308-1.575385-15.753846-3.150769-22.055384-7.876923-26.781538-20.48-61.44-56.713846-85.07077-81.92-11.027692-11.027692-17.329231-18.904615-17.32923-18.904615-1.575385-1.575385-1.575385-4.726154-1.575385-7.876923s3.150769-4.726154 4.726154-4.726154L393.846154 77.193846h6.301538c1.575385 1.575385 3.150769 3.150769 3.15077 4.726154l1.575384 6.301538c9.452308 45.686154 20.48 103.975385 17.329231 129.181539 0 3.150769-1.575385 7.876923-4.726154 12.603077-11.027692 15.753846-56.713846 26.781538-88.221538 26.781538z m-113.427693-110.276923c3.150769 3.150769 4.726154 6.301538 7.876923 9.452308 18.904615 20.48 55.138462 59.864615 81.92 80.344615 3.150769 1.575385 7.876923 3.150769 14.178462 4.726154 29.932308 3.150769 78.769231-11.027692 85.070769-18.904615 0 0 0-1.575385 1.575385-4.726154 1.575385-17.329231-4.726154-61.44-17.329231-122.88l-173.292308 51.987692zM699.470769 256.787692c-31.507692 0-77.193846-11.027692-88.221538-25.206154-3.150769-4.726154-3.150769-9.452308-4.726154-12.603076-3.150769-26.781538 11.027692-97.673846 17.329231-127.606154l1.575384-7.876923c0-1.575385 1.575385-4.726154 3.15077-4.726154 1.575385-1.575385 4.726154-1.575385 6.301538 0l193.772308 58.289231c3.150769 0 4.726154 3.150769 4.726154 4.726153 0 3.150769 0 4.726154-1.575385 7.876923 0 0-6.301538 7.876923-17.329231 20.48-15.753846 17.329231-53.563077 58.289231-83.495384 81.92-4.726154 4.726154-12.603077 6.301538-23.63077 7.876924-1.575385-3.150769-4.726154-3.150769-7.876923-3.15077zM638.030769 94.523077c-4.726154 22.055385-18.904615 96.098462-17.329231 121.304615 0 3.150769 1.575385 4.726154 1.575385 4.726154 6.301538 7.876923 53.563077 22.055385 83.495385 18.904616 9.452308-1.575385 12.603077-3.150769 15.753846-4.726154 28.356923-22.055385 66.166154-63.015385 81.92-78.769231 3.150769-4.726154 6.301538-7.876923 9.452308-11.027692L638.030769 94.523077z" fill="#bfbfbf" p-id="16547"></path><path d="M836.529231 360.763077c-26.781538 0-80.344615-18.904615-107.126154-28.356923-12.603077-4.726154-25.206154-11.027692-31.507692-14.178462-3.150769-1.575385-6.301538-3.150769-7.876923-6.301538-12.603077-12.603077 3.150769-50.412308 11.027692-66.166154 1.575385-3.150769 4.726154-4.726154 7.876923-4.726154 4.726154 0 7.876923 3.150769 7.876923 7.876923 0 1.575385 0 3.150769-1.575385 3.150769-9.452308 20.48-17.329231 44.110769-14.178461 47.261539 0 0 1.575385 1.575385 4.726154 3.150769 6.301538 3.150769 17.329231 9.452308 29.932307 14.178462 33.083077 14.178462 78.769231 28.356923 100.824616 28.356923 3.150769 0 6.301538 0 9.452307-1.575385 18.904615-7.876923 47.261538-33.083077 80.344616-70.892308 4.726154-4.726154 7.876923-7.876923 9.452308-11.027692l-130.756924-91.372308c-3.150769-3.150769-4.726154-7.876923-1.575384-11.027692 3.150769-3.150769 7.876923-4.726154 11.027692-1.575384l138.633846 96.098461c1.575385 1.575385 3.150769 3.150769 3.15077 4.726154 0 1.575385 0 4.726154-1.575385 6.301538 0 0-6.301538 7.876923-15.753846 18.904616-20.48 23.630769-58.289231 63.015385-86.646154 75.618461-6.301538 0-11.027692 1.575385-15.753846 1.575385z" fill="#bfbfbf" p-id="16548"></path><path d="M931.052308 455.286154c-3.150769 0-4.726154-1.575385-6.301539-3.150769l-83.495384-97.673847c-3.150769-3.150769-3.150769-7.876923 1.575384-11.027692 3.150769-3.150769 7.876923-3.150769 11.027693 1.575385l77.193846 91.372307 67.741538-67.741538-74.043077-85.070769c-3.150769-3.150769-3.150769-7.876923 1.575385-11.027693 3.150769-3.150769 7.876923-3.150769 11.027692 1.575385l78.769231 91.372308c3.150769 3.150769 3.150769 7.876923 0 11.027692l-78.769231 78.769231c-1.575385-1.575385-3.150769 0-6.301538 0zM285.144615 912.147692c-3.150769 0-7.876923-3.150769-7.876923-6.301538 0 0-15.753846-97.673846-33.083077-204.8-1.575385-11.027692-3.150769-23.630769-4.726153-34.658462C209.526154 488.369231 201.649231 441.107692 200.073846 433.230769c-6.301538-22.055385-23.630769-25.206154-25.206154-25.206154-4.726154 0-7.876923-4.726154-6.301538-9.452307 0-4.726154 4.726154-7.876923 9.452308-6.301539 1.575385 0 29.932308 4.726154 37.80923 37.809231 3.150769 11.027692 15.753846 89.796923 39.384616 233.156923 1.575385 11.027692 3.150769 23.630769 6.301538 34.658462 17.329231 107.126154 33.083077 204.8 33.083077 204.8 0 4.726154-3.150769 9.452308-9.452308 9.452307 1.575385 0 1.575385 0 0 0zM414.326154 97.673846c-3.150769 0-7.876923-3.150769-7.876923-6.301538 0-4.726154 3.150769-7.876923 6.301538-9.452308 20.48-3.150769 63.015385-4.726154 102.4-4.726154s81.92 1.575385 102.4 4.726154c4.726154 0 7.876923 4.726154 6.301539 9.452308 0 4.726154-4.726154 7.876923-9.452308 6.301538-18.904615-3.150769-63.015385-4.726154-99.249231-4.726154-37.809231 0-80.344615 1.575385-100.824615 4.726154z" fill="#bfbfbf" p-id="16549"></path><path d="M316.652308 943.655385c-22.055385 0-39.384615-17.329231-39.384616-39.384616 0-4.726154 3.150769-7.876923 7.876923-7.876923s7.876923 3.150769 7.876923 7.876923c0 12.603077 11.027692 23.630769 23.63077 23.630769 4.726154 0 7.876923 3.150769 7.876923 7.876924s-3.150769 7.876923-7.876923 7.876923zM743.581538 912.147692c-1.575385 0-1.575385 0 0 0-6.301538-1.575385-7.876923-4.726154-7.876923-9.452307 0 0 15.753846-97.673846 33.083077-204.8 1.575385-11.027692 3.150769-22.055385 4.726154-34.658462 23.630769-144.935385 37.809231-222.129231 39.384616-233.156923 7.876923-33.083077 36.233846-37.809231 37.80923-37.809231 4.726154 0 7.876923 3.150769 9.452308 6.301539 0 4.726154-3.150769 7.876923-6.301538 9.452307 0 0-18.904615 3.150769-25.206154 25.206154-3.150769 11.027692-15.753846 89.796923-39.384616 231.581539-1.575385 11.027692-3.150769 23.630769-4.726154 34.658461-17.329231 107.126154-33.083077 204.8-33.083076 204.8-1.575385 4.726154-4.726154 7.876923-7.876924 7.876923z" fill="#bfbfbf" p-id="16550"></path><path d="M710.498462 943.655385c-4.726154 0-7.876923-3.150769-7.876924-7.876923s3.150769-7.876923 7.876924-7.876924c12.603077 0 23.630769-11.027692 23.630769-23.630769 0-4.726154 3.150769-7.876923 7.876923-7.876923s7.876923 3.150769 7.876923 7.876923c0 22.055385-17.329231 39.384615-39.384615 39.384616z" fill="#bfbfbf" p-id="16551"></path><path d="M710.498462 943.655385h-393.846154c-4.726154 0-7.876923-3.150769-7.876923-7.876923s3.150769-7.876923 7.876923-7.876924h393.846154c4.726154 0 7.876923 3.150769 7.876923 7.876924s-3.150769 7.876923-7.876923 7.876923zM552.96 549.809231c-1.575385 0-4.726154-1.575385-6.301538-3.150769-3.150769-3.150769-3.150769-7.876923 0-11.027693 4.726154-4.726154 9.452308-11.027692 11.027692-18.904615 1.575385-4.726154 1.575385-9.452308 1.575384-14.178462 0-7.876923-1.575385-14.178462-4.726153-20.48-1.575385-4.726154-4.726154-9.452308-9.452308-12.603077-3.150769-3.150769-6.301538-4.726154-9.452308-7.876923-14.178462-9.452308-33.083077-9.452308-48.836923 0-3.150769 1.575385-6.301538 4.726154-9.452308 7.876923-3.150769 3.150769-7.876923 3.150769-11.027692 0s-3.150769-7.876923 0-11.027692c3.150769-3.150769 7.876923-7.876923 12.603077-9.452308 18.904615-11.027692 45.686154-11.027692 64.590769 0 4.726154 3.150769 7.876923 6.301538 12.603077 9.452308 4.726154 4.726154 9.452308 11.027692 12.603077 17.329231 4.726154 7.876923 6.301538 17.329231 6.301539 26.781538 0 6.301538-1.575385 12.603077-3.15077 18.904616-3.150769 9.452308-7.876923 18.904615-15.753846 25.206154 1.575385 1.575385-1.575385 3.150769-3.150769 3.150769z" fill="#bfbfbf" p-id="16552"></path><path d="M513.575385 565.563077c-14.178462 0-28.356923-4.726154-39.384616-14.178462l-4.726154-4.726153c-6.301538-6.301538-12.603077-15.753846-15.753846-25.206154-1.575385-6.301538-3.150769-12.603077-3.150769-18.904616 0-9.452308 1.575385-18.904615 6.301538-28.356923 3.150769-6.301538 6.301538-11.027692 12.603077-17.329231 3.150769-3.150769 7.876923-3.150769 11.027693 0 3.150769 3.150769 3.150769 7.876923 0 11.027693-3.150769 3.150769-6.301538 7.876923-9.452308 12.603077-3.150769 6.301538-4.726154 14.178462-4.726154 20.48 0 4.726154 0 9.452308 1.575385 14.178461 1.575385 7.876923 6.301538 14.178462 11.027692 18.904616l3.150769 3.150769c17.329231 14.178462 42.535385 14.178462 59.864616 0 1.575385-1.575385 3.150769-1.575385 3.150769-3.150769 3.150769-3.150769 7.876923-3.150769 11.027692 0s3.150769 7.876923 0 11.027692l-4.726154 4.726154c-7.876923 11.027692-22.055385 15.753846-37.80923 15.753846z" fill="#bfbfbf" p-id="16553"></path><path d="M513.575385 534.055385c-17.329231 0-31.507692-14.178462-31.507693-31.507693s14.178462-31.507692 31.507693-31.507692 31.507692 14.178462 31.507692 31.507692-12.603077 31.507692-31.507692 31.507693z m0-47.261539c-9.452308 0-15.753846 6.301538-15.753847 15.753846s6.301538 15.753846 15.753847 15.753846 15.753846-6.301538 15.753846-15.753846-6.301538-15.753846-15.753846-15.753846zM563.987692 486.793846c-1.575385 0-4.726154-1.575385-6.301538-3.150769-3.150769-3.150769-3.150769-7.876923 0-11.027692l168.566154-154.387693c3.150769-3.150769 7.876923-3.150769 11.027692 0 3.150769 3.150769 3.150769 7.876923 0 11.027693l-168.566154 154.387692c0 1.575385-3.150769 3.150769-4.726154 3.150769zM541.932308 463.163077c-1.575385 0-4.726154-1.575385-6.301539-3.150769-3.150769-3.150769-3.150769-7.876923 0-11.027693l159.113846-144.935384c3.150769-3.150769 7.876923-3.150769 11.027693 0 3.150769 3.150769 3.150769 7.876923 0 11.027692l-159.113846 144.935385c0 3.150769-1.575385 3.150769-4.726154 3.150769zM776.664615 707.347692c-1.575385 0-3.150769 0-4.726153-1.575384L545.083077 551.384615c-3.150769-3.150769-4.726154-7.876923-1.575385-11.027692 3.150769-3.150769 7.876923-4.726154 11.027693-1.575385l226.855384 152.812308c3.150769 3.150769 4.726154 7.876923 1.575385 11.027692-1.575385 3.150769-4.726154 4.726154-6.301539 4.726154zM781.390769 672.689231c-1.575385 0-3.150769 0-4.726154-1.575385l-214.252307-144.935384c-3.150769-3.150769-4.726154-7.876923-1.575385-11.027693 3.150769-3.150769 7.876923-4.726154 11.027692-1.575384l214.252308 144.935384c3.150769 3.150769 4.726154 7.876923 1.575385 11.027693-1.575385 1.575385-3.150769 3.150769-6.301539 3.150769zM464.738462 486.793846c-1.575385 0-3.150769 0-4.726154-1.575384L291.446154 330.830769c-3.150769-3.150769-3.150769-7.876923 0-11.027692s7.876923-3.150769 11.027692 0L469.464615 472.615385c3.150769 3.150769 3.150769 7.876923 0 11.027692 0 1.575385-3.150769 3.150769-4.726153 3.150769zM486.793846 463.163077c-1.575385 0-3.150769 0-4.726154-1.575385L321.378462 315.076923c-3.150769-3.150769-3.150769-7.876923 0-11.027692 3.150769-3.150769 7.876923-3.150769 11.027692 0l159.113846 144.935384c3.150769 3.150769 3.150769 7.876923 0 11.027693-1.575385 1.575385-3.150769 3.150769-4.726154 3.150769zM253.636923 707.347692c-3.150769 0-4.726154-1.575385-6.301538-3.150769-3.150769-3.150769-1.575385-7.876923 1.575384-11.027692l226.855385-152.812308c3.150769-3.150769 7.876923-1.575385 11.027692 1.575385s1.575385 7.876923-1.575384 11.027692l-226.855385 152.812308c-1.575385 0-3.150769 1.575385-4.726154 1.575384zM247.335385 672.689231c-3.150769 0-4.726154-1.575385-6.301539-3.150769-3.150769-3.150769-1.575385-7.876923 1.575385-11.027693L456.861538 512c3.150769-3.150769 7.876923-1.575385 11.027693 1.575385 3.150769 3.150769 1.575385 7.876923-1.575385 11.027692L252.061538 671.113846c-1.575385 1.575385-3.150769 1.575385-4.726153 1.575385zM513.575385 463.163077c-4.726154 0-7.876923-3.150769-7.876923-7.876923v-7.876923c0-4.726154 3.150769-7.876923 7.876923-7.876923s7.876923 3.150769 7.876923 7.876923v7.876923c0 4.726154-3.150769 7.876923-7.876923 7.876923zM513.575385 565.563077c-4.726154 0-7.876923-3.150769-7.876923-7.876923v-7.876923c0-4.726154 3.150769-7.876923 7.876923-7.876923s7.876923 3.150769 7.876923 7.876923v7.876923c0 4.726154-3.150769 7.876923-7.876923 7.876923z" fill="#bfbfbf" p-id="16554"></path><path d="M480.492308 477.341538c-1.575385 0-4.726154 0-4.726154-1.575384l-4.726154-4.726154s-1.575385-1.575385-1.575385-3.150769v-3.150769c0-4.726154 3.150769-7.876923 7.876923-7.876924 3.150769 0 4.726154 1.575385 6.301539 3.15077l4.726154 4.726154c3.150769 3.150769 3.150769 7.876923 0 11.027692-3.150769 0-4.726154 1.575385-7.876923 1.575384z m-4.726154-14.178461zM552.96 549.809231c-3.150769 0-4.726154-1.575385-6.301538-3.150769l-4.726154-4.726154c-3.150769-3.150769-3.150769-7.876923 0-11.027693 3.150769-3.150769 7.876923-3.150769 11.027692 0l4.726154 4.726154s1.575385 1.575385 1.575384 3.150769v3.15077c1.575385 3.150769-1.575385 7.876923-6.301538 7.876923zM466.313846 510.424615h-7.876923c-4.726154 0-7.876923-3.150769-7.876923-7.876923s3.150769-7.876923 7.876923-7.876923h7.876923c4.726154 0 7.876923 3.150769 7.876923 7.876923s-3.150769 7.876923-7.876923 7.876923zM568.713846 510.424615h-7.876923c-4.726154 0-7.876923-3.150769-7.876923-7.876923s3.150769-7.876923 7.876923-7.876923h7.876923c4.726154 0 7.876923 3.150769 7.876923 7.876923s-3.150769 7.876923-7.876923 7.876923zM480.492308 546.658462l-11.027693-11.027693 4.726154-4.726154c3.150769-3.150769 7.876923-3.150769 11.027693 0s3.150769 7.876923 0 11.027693l-4.726154 4.726154zM548.233846 477.341538c-1.575385 0-4.726154 0-6.301538-1.575384-3.150769-3.150769-3.150769-7.876923 0-11.027692l4.726154-6.301539 11.027692 11.027692-4.726154 4.726154c-1.575385 1.575385-3.150769 3.150769-4.726154 3.150769zM324.529231 770.363077c-17.329231 0-31.507692-14.178462-31.507693-31.507692 0-4.726154 3.150769-7.876923 7.876924-7.876923s7.876923 3.150769 7.876923 7.876923c0 9.452308 6.301538 15.753846 15.753846 15.753846s15.753846-6.301538 15.753846-15.753846c0-4.726154 3.150769-7.876923 7.876923-7.876923s7.876923 3.150769 7.876923 7.876923c0 17.329231-12.603077 31.507692-31.507692 31.507692z" fill="#bfbfbf" p-id="16555"></path><path d="M294.596923 764.061538c-1.575385 0-4.726154-1.575385-6.301538-3.150769-3.150769-3.150769-3.150769-7.876923 0-11.027692 3.150769-3.150769 4.726154-7.876923 4.726153-11.027692 0-4.726154 3.150769-7.876923 7.876924-7.876923s7.876923 3.150769 7.876923 7.876923c0 9.452308-3.150769 17.329231-11.027693 23.630769 0 1.575385-1.575385 1.575385-3.150769 1.575384zM371.790769 770.363077c-17.329231 0-31.507692-14.178462-31.507692-31.507692 0-4.726154 3.150769-7.876923 7.876923-7.876923s7.876923 3.150769 7.876923 7.876923c0 9.452308 6.301538 15.753846 15.753846 15.753846s15.753846-6.301538 15.753846-15.753846c0-4.726154 3.150769-7.876923 7.876923-7.876923s7.876923 3.150769 7.876924 7.876923c0 17.329231-12.603077 31.507692-31.507693 31.507692z" fill="#bfbfbf" p-id="16556"></path><path d="M419.052308 770.363077c-17.329231 0-31.507692-14.178462-31.507693-31.507692 0-4.726154 3.150769-7.876923 7.876923-7.876923s7.876923 3.150769 7.876924 7.876923c0 9.452308 6.301538 15.753846 15.753846 15.753846s15.753846-6.301538 15.753846-15.753846c0-4.726154 3.150769-7.876923 7.876923-7.876923s7.876923 3.150769 7.876923 7.876923c0 17.329231-12.603077 31.507692-31.507692 31.507692z" fill="#bfbfbf" p-id="16557"></path><path d="M466.313846 770.363077c-17.329231 0-31.507692-14.178462-31.507692-31.507692 0-4.726154 3.150769-7.876923 7.876923-7.876923s7.876923 3.150769 7.876923 7.876923c0 9.452308 6.301538 15.753846 15.753846 15.753846s15.753846-6.301538 15.753846-15.753846c0-4.726154 3.150769-7.876923 7.876923-7.876923s7.876923 3.150769 7.876923 7.876923c0 17.329231-12.603077 31.507692-31.507692 31.507692z" fill="#bfbfbf" p-id="16558"></path><path d="M513.575385 770.363077c-17.329231 0-31.507692-14.178462-31.507693-31.507692 0-4.726154 3.150769-7.876923 7.876923-7.876923s7.876923 3.150769 7.876923 7.876923c0 9.452308 6.301538 15.753846 15.753847 15.753846s15.753846-6.301538 15.753846-15.753846c0-4.726154 3.150769-7.876923 7.876923-7.876923s7.876923 3.150769 7.876923 7.876923c0 17.329231-12.603077 31.507692-31.507692 31.507692z" fill="#bfbfbf" p-id="16559"></path><path d="M560.836923 770.363077c-17.329231 0-31.507692-14.178462-31.507692-31.507692 0-4.726154 3.150769-7.876923 7.876923-7.876923s7.876923 3.150769 7.876923 7.876923c0 9.452308 6.301538 15.753846 15.753846 15.753846s15.753846-6.301538 15.753846-15.753846c0-4.726154 3.150769-7.876923 7.876923-7.876923s7.876923 3.150769 7.876923 7.876923c0 17.329231-12.603077 31.507692-31.507692 31.507692z" fill="#bfbfbf" p-id="16560"></path><path d="M608.098462 770.363077c-17.329231 0-31.507692-14.178462-31.507693-31.507692 0-4.726154 3.150769-7.876923 7.876923-7.876923s7.876923 3.150769 7.876923 7.876923c0 9.452308 6.301538 15.753846 15.753847 15.753846s15.753846-6.301538 15.753846-15.753846c0-4.726154 3.150769-7.876923 7.876923-7.876923s7.876923 3.150769 7.876923 7.876923c0 17.329231-12.603077 31.507692-31.507692 31.507692z" fill="#bfbfbf" p-id="16561"></path><path d="M655.36 770.363077c-17.329231 0-31.507692-14.178462-31.507692-31.507692 0-4.726154 3.150769-7.876923 7.876923-7.876923s7.876923 3.150769 7.876923 7.876923c0 9.452308 6.301538 15.753846 15.753846 15.753846s15.753846-6.301538 15.753846-15.753846c0-4.726154 3.150769-7.876923 7.876923-7.876923s7.876923 3.150769 7.876923 7.876923c0 17.329231-12.603077 31.507692-31.507692 31.507692z" fill="#bfbfbf" p-id="16562"></path><path d="M702.621538 770.363077c-17.329231 0-31.507692-14.178462-31.507692-31.507692 0-4.726154 3.150769-7.876923 7.876923-7.876923s7.876923 3.150769 7.876923 7.876923c0 9.452308 6.301538 15.753846 15.753846 15.753846s15.753846-6.301538 15.753847-15.753846c0-4.726154 3.150769-7.876923 7.876923-7.876923s7.876923 3.150769 7.876923 7.876923c0 17.329231-12.603077 31.507692-31.507693 31.507692z" fill="#bfbfbf" p-id="16563"></path><path d="M734.129231 764.061538c-1.575385 0-3.150769 0-4.726154-1.575384-6.301538-6.301538-11.027692-14.178462-11.027692-23.630769 0-4.726154 3.150769-7.876923 7.876923-7.876923s7.876923 3.150769 7.876923 7.876923 1.575385 9.452308 4.726154 11.027692 3.150769 7.876923 0 11.027692c0 3.150769-1.575385 3.150769-4.726154 3.150769zM348.16 817.624615c-17.329231 0-31.507692-14.178462-31.507692-31.507692 0-4.726154 3.150769-7.876923 7.876923-7.876923s7.876923 3.150769 7.876923 7.876923c0 9.452308 6.301538 15.753846 15.753846 15.753846s15.753846-6.301538 15.753846-15.753846c0-4.726154 3.150769-7.876923 7.876923-7.876923s7.876923 3.150769 7.876923 7.876923c0 17.329231-12.603077 31.507692-31.507692 31.507692z" fill="#bfbfbf" p-id="16564"></path><path d="M300.898462 817.624615c-4.726154 0-7.876923-3.150769-7.876924-7.876923s3.150769-7.876923 7.876924-7.876923c9.452308 0 15.753846-6.301538 15.753846-15.753846 0-4.726154 3.150769-7.876923 7.876923-7.876923s7.876923 3.150769 7.876923 7.876923c0 17.329231-12.603077 31.507692-31.507692 31.507692zM395.421538 817.624615c-17.329231 0-31.507692-14.178462-31.507692-31.507692 0-4.726154 3.150769-7.876923 7.876923-7.876923s7.876923 3.150769 7.876923 7.876923c0 9.452308 6.301538 15.753846 15.753846 15.753846s15.753846-6.301538 15.753847-15.753846c0-4.726154 3.150769-7.876923 7.876923-7.876923s7.876923 3.150769 7.876923 7.876923c0 17.329231-12.603077 31.507692-31.507693 31.507692z" fill="#bfbfbf" p-id="16565"></path><path d="M442.683077 817.624615c-17.329231 0-31.507692-14.178462-31.507692-31.507692 0-4.726154 3.150769-7.876923 7.876923-7.876923s7.876923 3.150769 7.876923 7.876923c0 9.452308 6.301538 15.753846 15.753846 15.753846s15.753846-6.301538 15.753846-15.753846c0-4.726154 3.150769-7.876923 7.876923-7.876923s7.876923 3.150769 7.876923 7.876923c0 17.329231-12.603077 31.507692-31.507692 31.507692z" fill="#bfbfbf" p-id="16566"></path><path d="M489.944615 817.624615c-17.329231 0-31.507692-14.178462-31.507692-31.507692 0-4.726154 3.150769-7.876923 7.876923-7.876923s7.876923 3.150769 7.876923 7.876923c0 9.452308 6.301538 15.753846 15.753846 15.753846s15.753846-6.301538 15.753847-15.753846c0-4.726154 3.150769-7.876923 7.876923-7.876923s7.876923 3.150769 7.876923 7.876923c0 17.329231-12.603077 31.507692-31.507693 31.507692z" fill="#bfbfbf" p-id="16567"></path><path d="M537.206154 817.624615c-17.329231 0-31.507692-14.178462-31.507692-31.507692 0-4.726154 3.150769-7.876923 7.876923-7.876923s7.876923 3.150769 7.876923 7.876923c0 9.452308 6.301538 15.753846 15.753846 15.753846s15.753846-6.301538 15.753846-15.753846c0-4.726154 3.150769-7.876923 7.876923-7.876923s7.876923 3.150769 7.876923 7.876923c0 17.329231-12.603077 31.507692-31.507692 31.507692z" fill="#bfbfbf" p-id="16568"></path><path d="M584.467692 817.624615c-17.329231 0-31.507692-14.178462-31.507692-31.507692 0-4.726154 3.150769-7.876923 7.876923-7.876923s7.876923 3.150769 7.876923 7.876923c0 9.452308 6.301538 15.753846 15.753846 15.753846s15.753846-6.301538 15.753846-15.753846c0-4.726154 3.150769-7.876923 7.876924-7.876923s7.876923 3.150769 7.876923 7.876923c0 17.329231-12.603077 31.507692-31.507693 31.507692z" fill="#bfbfbf" p-id="16569"></path><path d="M631.729231 817.624615c-17.329231 0-31.507692-14.178462-31.507693-31.507692 0-4.726154 3.150769-7.876923 7.876924-7.876923s7.876923 3.150769 7.876923 7.876923c0 9.452308 6.301538 15.753846 15.753846 15.753846s15.753846-6.301538 15.753846-15.753846c0-4.726154 3.150769-7.876923 7.876923-7.876923s7.876923 3.150769 7.876923 7.876923c0 17.329231-12.603077 31.507692-31.507692 31.507692z" fill="#bfbfbf" p-id="16570"></path><path d="M678.990769 817.624615c-17.329231 0-31.507692-14.178462-31.507692-31.507692 0-4.726154 3.150769-7.876923 7.876923-7.876923s7.876923 3.150769 7.876923 7.876923c0 9.452308 6.301538 15.753846 15.753846 15.753846s15.753846-6.301538 15.753846-15.753846c0-4.726154 3.150769-7.876923 7.876923-7.876923s7.876923 3.150769 7.876924 7.876923c0 17.329231-12.603077 31.507692-31.507693 31.507692z" fill="#bfbfbf" p-id="16571"></path><path d="M726.252308 817.624615c-17.329231 0-31.507692-14.178462-31.507693-31.507692 0-4.726154 3.150769-7.876923 7.876923-7.876923s7.876923 3.150769 7.876924 7.876923c0 9.452308 6.301538 15.753846 15.753846 15.753846 4.726154 0 7.876923 3.150769 7.876923 7.876923s-3.150769 7.876923-7.876923 7.876923zM371.790769 864.886154c-17.329231 0-31.507692-14.178462-31.507692-31.507692 0-4.726154 3.150769-7.876923 7.876923-7.876924s7.876923 3.150769 7.876923 7.876924c0 9.452308 6.301538 15.753846 15.753846 15.753846s15.753846-6.301538 15.753846-15.753846c0-4.726154 3.150769-7.876923 7.876923-7.876924s7.876923 3.150769 7.876924 7.876924c0 17.329231-12.603077 31.507692-31.507693 31.507692z" fill="#bfbfbf" p-id="16572"></path><path d="M324.529231 864.886154c-7.876923 0-15.753846-3.150769-22.055385-7.876923-3.150769-3.150769-3.150769-7.876923 0-11.027693 3.150769-3.150769 7.876923-3.150769 11.027692 0 3.150769 3.150769 6.301538 4.726154 11.027693 4.726154 9.452308 0 15.753846-6.301538 15.753846-15.753846 0-4.726154 3.150769-7.876923 7.876923-7.876923s7.876923 3.150769 7.876923 7.876923c0 15.753846-12.603077 29.932308-31.507692 29.932308zM419.052308 864.886154c-17.329231 0-31.507692-14.178462-31.507693-31.507692 0-4.726154 3.150769-7.876923 7.876923-7.876924s7.876923 3.150769 7.876924 7.876924c0 9.452308 6.301538 15.753846 15.753846 15.753846s15.753846-6.301538 15.753846-15.753846c0-4.726154 3.150769-7.876923 7.876923-7.876924s7.876923 3.150769 7.876923 7.876924c0 17.329231-12.603077 31.507692-31.507692 31.507692z" fill="#bfbfbf" p-id="16573"></path><path d="M466.313846 864.886154c-17.329231 0-31.507692-14.178462-31.507692-31.507692 0-4.726154 3.150769-7.876923 7.876923-7.876924s7.876923 3.150769 7.876923 7.876924c0 9.452308 6.301538 15.753846 15.753846 15.753846s15.753846-6.301538 15.753846-15.753846c0-4.726154 3.150769-7.876923 7.876923-7.876924s7.876923 3.150769 7.876923 7.876924c0 17.329231-12.603077 31.507692-31.507692 31.507692z" fill="#bfbfbf" p-id="16574"></path><path d="M513.575385 864.886154c-17.329231 0-31.507692-14.178462-31.507693-31.507692 0-4.726154 3.150769-7.876923 7.876923-7.876924s7.876923 3.150769 7.876923 7.876924c0 9.452308 6.301538 15.753846 15.753847 15.753846s15.753846-6.301538 15.753846-15.753846c0-4.726154 3.150769-7.876923 7.876923-7.876924s7.876923 3.150769 7.876923 7.876924c0 17.329231-12.603077 31.507692-31.507692 31.507692z" fill="#bfbfbf" p-id="16575"></path><path d="M560.836923 864.886154c-17.329231 0-31.507692-14.178462-31.507692-31.507692 0-4.726154 3.150769-7.876923 7.876923-7.876924s7.876923 3.150769 7.876923 7.876924c0 9.452308 6.301538 15.753846 15.753846 15.753846s15.753846-6.301538 15.753846-15.753846c0-4.726154 3.150769-7.876923 7.876923-7.876924s7.876923 3.150769 7.876923 7.876924c0 17.329231-12.603077 31.507692-31.507692 31.507692z" fill="#bfbfbf" p-id="16576"></path><path d="M608.098462 864.886154c-17.329231 0-31.507692-14.178462-31.507693-31.507692 0-4.726154 3.150769-7.876923 7.876923-7.876924s7.876923 3.150769 7.876923 7.876924c0 9.452308 6.301538 15.753846 15.753847 15.753846s15.753846-6.301538 15.753846-15.753846c0-4.726154 3.150769-7.876923 7.876923-7.876924s7.876923 3.150769 7.876923 7.876924c0 17.329231-12.603077 31.507692-31.507692 31.507692z" fill="#bfbfbf" p-id="16577"></path><path d="M655.36 864.886154c-17.329231 0-31.507692-14.178462-31.507692-31.507692 0-4.726154 3.150769-7.876923 7.876923-7.876924s7.876923 3.150769 7.876923 7.876924c0 9.452308 6.301538 15.753846 15.753846 15.753846s15.753846-6.301538 15.753846-15.753846c0-4.726154 3.150769-7.876923 7.876923-7.876924s7.876923 3.150769 7.876923 7.876924c0 17.329231-12.603077 31.507692-31.507692 31.507692z" fill="#bfbfbf" p-id="16578"></path><path d="M702.621538 864.886154c-17.329231 0-31.507692-14.178462-31.507692-31.507692 0-4.726154 3.150769-7.876923 7.876923-7.876924s7.876923 3.150769 7.876923 7.876924c0 9.452308 6.301538 15.753846 15.753846 15.753846 4.726154 0 7.876923-1.575385 11.027693-4.726154 3.150769-3.150769 7.876923-3.150769 11.027692 0 3.150769 3.150769 3.150769 7.876923 0 11.027692-4.726154 6.301538-12.603077 9.452308-22.055385 9.452308zM395.421538 912.147692c-17.329231 0-31.507692-14.178462-31.507692-31.507692 0-4.726154 3.150769-7.876923 7.876923-7.876923s7.876923 3.150769 7.876923 7.876923c0 9.452308 6.301538 15.753846 15.753846 15.753846s15.753846-6.301538 15.753847-15.753846c0-4.726154 3.150769-7.876923 7.876923-7.876923s7.876923 3.150769 7.876923 7.876923c0 17.329231-12.603077 31.507692-31.507693 31.507692z" fill="#bfbfbf" p-id="16579"></path><path d="M348.16 912.147692c-17.329231 0-31.507692-14.178462-31.507692-31.507692 0-4.726154 3.150769-7.876923 7.876923-7.876923s7.876923 3.150769 7.876923 7.876923c0 9.452308 6.301538 15.753846 15.753846 15.753846s15.753846-6.301538 15.753846-15.753846c0-4.726154 3.150769-7.876923 7.876923-7.876923s7.876923 3.150769 7.876923 7.876923c0 17.329231-12.603077 31.507692-31.507692 31.507692z" fill="#bfbfbf" p-id="16580"></path><path d="M316.652308 907.421538c-1.575385 0-4.726154-1.575385-6.301539-3.150769-3.150769-3.150769-1.575385-7.876923 1.575385-11.027692 3.150769-3.150769 6.301538-7.876923 6.301538-12.603077 0-4.726154 3.150769-7.876923 7.876923-7.876923s7.876923 3.150769 7.876923 7.876923c0 9.452308-4.726154 18.904615-11.027692 23.630769-3.150769 1.575385-4.726154 3.150769-6.301538 3.150769zM442.683077 912.147692c-17.329231 0-31.507692-14.178462-31.507692-31.507692 0-4.726154 3.150769-7.876923 7.876923-7.876923s7.876923 3.150769 7.876923 7.876923c0 9.452308 6.301538 15.753846 15.753846 15.753846s15.753846-6.301538 15.753846-15.753846c0-4.726154 3.150769-7.876923 7.876923-7.876923s7.876923 3.150769 7.876923 7.876923c0 17.329231-12.603077 31.507692-31.507692 31.507692z" fill="#bfbfbf" p-id="16581"></path><path d="M489.944615 912.147692c-17.329231 0-31.507692-14.178462-31.507692-31.507692 0-4.726154 3.150769-7.876923 7.876923-7.876923s7.876923 3.150769 7.876923 7.876923c0 9.452308 6.301538 15.753846 15.753846 15.753846s15.753846-6.301538 15.753847-15.753846c0-4.726154 3.150769-7.876923 7.876923-7.876923s7.876923 3.150769 7.876923 7.876923c0 17.329231-12.603077 31.507692-31.507693 31.507692z" fill="#bfbfbf" p-id="16582"></path><path d="M537.206154 912.147692c-17.329231 0-31.507692-14.178462-31.507692-31.507692 0-4.726154 3.150769-7.876923 7.876923-7.876923s7.876923 3.150769 7.876923 7.876923c0 9.452308 6.301538 15.753846 15.753846 15.753846s15.753846-6.301538 15.753846-15.753846c0-4.726154 3.150769-7.876923 7.876923-7.876923s7.876923 3.150769 7.876923 7.876923c0 17.329231-12.603077 31.507692-31.507692 31.507692z" fill="#bfbfbf" p-id="16583"></path><path d="M584.467692 912.147692c-17.329231 0-31.507692-14.178462-31.507692-31.507692 0-4.726154 3.150769-7.876923 7.876923-7.876923s7.876923 3.150769 7.876923 7.876923c0 9.452308 6.301538 15.753846 15.753846 15.753846s15.753846-6.301538 15.753846-15.753846c0-4.726154 3.150769-7.876923 7.876924-7.876923s7.876923 3.150769 7.876923 7.876923c0 17.329231-12.603077 31.507692-31.507693 31.507692z" fill="#bfbfbf" p-id="16584"></path><path d="M631.729231 912.147692c-17.329231 0-31.507692-14.178462-31.507693-31.507692 0-4.726154 3.150769-7.876923 7.876924-7.876923s7.876923 3.150769 7.876923 7.876923c0 9.452308 6.301538 15.753846 15.753846 15.753846s15.753846-6.301538 15.753846-15.753846c0-4.726154 3.150769-7.876923 7.876923-7.876923s7.876923 3.150769 7.876923 7.876923c0 17.329231-12.603077 31.507692-31.507692 31.507692z" fill="#bfbfbf" p-id="16585"></path><path d="M678.990769 912.147692c-17.329231 0-31.507692-14.178462-31.507692-31.507692 0-4.726154 3.150769-7.876923 7.876923-7.876923s7.876923 3.150769 7.876923 7.876923c0 9.452308 6.301538 15.753846 15.753846 15.753846s15.753846-6.301538 15.753846-15.753846c0-4.726154 3.150769-7.876923 7.876923-7.876923s7.876923 3.150769 7.876924 7.876923c0 17.329231-12.603077 31.507692-31.507693 31.507692z" fill="#bfbfbf" p-id="16586"></path><path d="M710.498462 905.846154c-1.575385 0-3.150769 0-4.726154-1.575385-6.301538-6.301538-11.027692-14.178462-11.027693-23.630769 0-4.726154 3.150769-7.876923 7.876923-7.876923s7.876923 3.150769 7.876924 7.876923 1.575385 9.452308 4.726153 11.027692c3.150769 3.150769 3.150769 7.876923 0 11.027693 0 3.150769-1.575385 3.150769-4.726153 3.150769zM190.621538 471.04c-1.575385 0-3.150769 0-4.726153-1.575385l-47.261539-31.507692c-3.150769-3.150769-4.726154-7.876923-1.575384-11.027692 3.150769-3.150769 7.876923-4.726154 11.027692-1.575385l47.261538 31.507692c3.150769 3.150769 4.726154 7.876923 1.575385 11.027693 0 1.575385-3.150769 3.150769-6.301539 3.150769zM836.529231 471.04c-3.150769 0-4.726154-1.575385-6.301539-3.150769-3.150769-3.150769-1.575385-7.876923 1.575385-11.027693l47.261538-31.507692c3.150769-3.150769 7.876923-1.575385 11.027693 1.575385 3.150769 3.150769 1.575385 7.876923-1.575385 11.027692l-47.261538 31.507692c-1.575385 1.575385-3.150769 1.575385-4.726154 1.575385zM434.806154 675.84c-1.575385 0-4.726154 0-6.301539-1.575385-3.150769-3.150769-3.150769-7.876923 0-11.027692l15.753847-15.753846c3.150769-3.150769 7.876923-3.150769 11.027692 0s3.150769 7.876923 0 11.027692l-15.753846 15.753846c0 1.575385-1.575385 1.575385-4.726154 1.575385z" fill="#bfbfbf" p-id="16587"></path><path d="M466.313846 675.84c-1.575385 0-4.726154 0-6.301538-1.575385l-15.753846-15.753846c-3.150769-3.150769-3.150769-7.876923 0-11.027692s7.876923-3.150769 11.027692 0l15.753846 15.753846c3.150769 3.150769 3.150769 7.876923 0 11.027692 0 1.575385-1.575385 1.575385-4.726154 1.575385z" fill="#bfbfbf" p-id="16588"></path><path d="M466.313846 675.84c-1.575385 0-4.726154 0-6.301538-1.575385-3.150769-3.150769-3.150769-7.876923 0-11.027692l15.753846-15.753846c3.150769-3.150769 7.876923-3.150769 11.027692 0s3.150769 7.876923 0 11.027692l-15.753846 15.753846c0 1.575385-1.575385 1.575385-4.726154 1.575385z" fill="#bfbfbf" p-id="16589"></path><path d="M497.821538 675.84c-1.575385 0-4.726154 0-6.301538-1.575385l-15.753846-15.753846c-3.150769-3.150769-3.150769-7.876923 0-11.027692s7.876923-3.150769 11.027692 0l15.753846 15.753846c3.150769 3.150769 3.150769 7.876923 0 11.027692 0 1.575385-1.575385 1.575385-4.726154 1.575385z" fill="#bfbfbf" p-id="16590"></path><path d="M497.821538 675.84c-1.575385 0-4.726154 0-6.301538-1.575385-3.150769-3.150769-3.150769-7.876923 0-11.027692l15.753846-15.753846c3.150769-3.150769 7.876923-3.150769 11.027692 0s3.150769 7.876923 0 11.027692l-15.753846 15.753846c0 1.575385-1.575385 1.575385-4.726154 1.575385z" fill="#bfbfbf" p-id="16591"></path><path d="M529.329231 675.84c-1.575385 0-4.726154 0-6.301539-1.575385l-15.753846-15.753846c-3.150769-3.150769-3.150769-7.876923 0-11.027692s7.876923-3.150769 11.027692 0l15.753847 15.753846c3.150769 3.150769 3.150769 7.876923 0 11.027692 0 1.575385-1.575385 1.575385-4.726154 1.575385z" fill="#bfbfbf" p-id="16592"></path><path d="M529.329231 675.84c-1.575385 0-4.726154 0-6.301539-1.575385-3.150769-3.150769-3.150769-7.876923 0-11.027692l15.753846-15.753846c3.150769-3.150769 7.876923-3.150769 11.027693 0s3.150769 7.876923 0 11.027692l-15.753846 15.753846c0 1.575385-1.575385 1.575385-4.726154 1.575385z" fill="#bfbfbf" p-id="16593"></path><path d="M560.836923 675.84c-1.575385 0-4.726154 0-6.301538-1.575385l-15.753847-15.753846c-3.150769-3.150769-3.150769-7.876923 0-11.027692s7.876923-3.150769 11.027693 0l15.753846 15.753846c3.150769 3.150769 3.150769 7.876923 0 11.027692 0 1.575385-1.575385 1.575385-4.726154 1.575385z" fill="#bfbfbf" p-id="16594"></path><path d="M560.836923 675.84c-1.575385 0-4.726154 0-6.301538-1.575385-3.150769-3.150769-3.150769-7.876923 0-11.027692l15.753846-15.753846c3.150769-3.150769 7.876923-3.150769 11.027692 0s3.150769 7.876923 0 11.027692l-15.753846 15.753846c0 1.575385-1.575385 1.575385-4.726154 1.575385z" fill="#bfbfbf" p-id="16595"></path><path d="M592.344615 675.84c-1.575385 0-4.726154 0-6.301538-1.575385l-15.753846-15.753846c-3.150769-3.150769-3.150769-7.876923 0-11.027692s7.876923-3.150769 11.027692 0l15.753846 15.753846c3.150769 3.150769 3.150769 7.876923 0 11.027692 0 1.575385-1.575385 1.575385-4.726154 1.575385zM513.575385 329.255385c-4.726154 0-7.876923-3.150769-7.876923-7.876923v-63.015385c0-4.726154 3.150769-7.876923 7.876923-7.876923s7.876923 3.150769 7.876923 7.876923v63.015385c0 4.726154-3.150769 7.876923-7.876923 7.876923zM190.621538 360.763077c-4.726154 0-9.452308-1.575385-15.753846-3.150769-28.356923-11.027692-66.166154-51.987692-86.646154-74.043077-9.452308-11.027692-15.753846-18.904615-15.753846-18.904616-1.575385-1.575385-1.575385-3.150769-1.575384-6.301538 0-1.575385 1.575385-4.726154 3.150769-4.726154l138.633846-96.098461c3.150769-3.150769 7.876923-1.575385 11.027692 1.575384 3.150769 3.150769 1.575385 7.876923-1.575384 11.027692l-130.756923 91.372308c3.150769 3.150769 6.301538 6.301538 9.452307 11.027692 33.083077 37.809231 63.015385 63.015385 80.344616 70.892308 3.150769 1.575385 6.301538 1.575385 9.452307 1.575385 22.055385 0 67.741538-14.178462 102.4-28.356923 12.603077-6.301538 23.630769-11.027692 29.932308-14.178462 3.150769-1.575385 3.150769-3.150769 3.150769-3.150769 3.150769-4.726154-3.150769-26.781538-14.178461-47.261539-1.575385-3.150769 0-7.876923 3.150769-11.027692 3.150769-1.575385 7.876923 0 11.027692 3.150769 7.876923 15.753846 23.630769 51.987692 11.027693 66.166154-1.575385 1.575385-3.150769 3.150769-6.301539 4.726154-6.301538 4.726154-17.329231 9.452308-31.507692 15.753846-28.356923 11.027692-81.92 29.932308-108.701539 29.932308z" fill="#bfbfbf" p-id="16596"></path><path d="M96.098462 455.286154c-1.575385 0-4.726154-1.575385-6.301539-1.575385l-78.769231-78.769231c-3.150769-3.150769-3.150769-7.876923 0-11.027692l78.769231-91.372308c3.150769-3.150769 7.876923-3.150769 11.027692-1.575384 3.150769 3.150769 3.150769 7.876923 1.575385 11.027692l-74.043077 85.070769L94.523077 436.381538l77.193846-91.372307c3.150769-3.150769 7.876923-3.150769 11.027692-1.575385s3.150769 7.876923 1.575385 11.027692l-83.495385 97.673847c-1.575385 1.575385-3.150769 3.150769-4.726153 3.150769zM891.667692 408.024615h-37.80923c-4.726154 0-7.876923-3.150769-7.876924-7.876923s3.150769-7.876923 7.876924-7.876923h37.80923c4.726154 0 7.876923 3.150769 7.876923 7.876923s-3.150769 7.876923-7.876923 7.876923z" fill="#bfbfbf" p-id="16597"></path><path d="M174.867692 408.024615H135.483077c-4.726154 0-7.876923-3.150769-7.876923-7.876923s3.150769-7.876923 7.876923-7.876923h39.384615c4.726154 0 7.876923 3.150769 7.876923 7.876923s-3.150769 7.876923-7.876923 7.876923z" fill="#bfbfbf" p-id="16598"></path></svg>