<?xml version="1.0" standalone="no"?><!DOCTYPE svg PUBLIC "-//W3C//DTD SVG 1.1//EN" "http://www.w3.org/Graphics/SVG/1.1/DTD/svg11.dtd"><svg t="1617802505423" class="icon" viewBox="0 0 1024 1024" version="1.1" xmlns="http://www.w3.org/2000/svg" p-id="16821" xmlns:xlink="http://www.w3.org/1999/xlink" width="200" height="200"><defs><style type="text/css"></style></defs><path d="M350.4 646.7c6.6 1 13.2 2 19.9 2.9h0.7c2.5 0 4.6-1.8 4.9-4.3 0.4-2.7-1.5-5.3-4.3-5.6-6.6-0.9-13.2-1.9-19.7-2.9-2.7-0.4-5.3 1.4-5.7 4.2-0.4 2.7 1.4 5.3 4.2 5.7zM140.5 578.5c5.6 3.4 11.6 6.7 17.7 9.9 0.7 0.4 1.5 0.6 2.3 0.6 1.8 0 3.5-1 4.4-2.7 1.3-2.4 0.3-5.5-2.1-6.7-6-3.1-11.8-6.3-17.2-9.6-2.4-1.4-5.4-0.6-6.9 1.7-1.4 2.3-0.6 5.4 1.8 6.8zM438.3 656.5c6.6 0.5 13.4 0.8 20.1 1.2h0.2c2.6 0 4.9-2.1 5-4.8 0.1-2.8-2-5.1-4.8-5.2-6.6-0.3-13.3-0.7-19.9-1.2-2.7-0.2-5.1 1.9-5.3 4.7-0.2 2.8 1.9 5.1 4.7 5.3zM394.2 652.6c6.6 0.7 13.4 1.4 20 2h0.5c2.6 0 4.7-2 5-4.5 0.3-2.8-1.8-5.2-4.5-5.4-6.6-0.6-13.2-1.3-19.8-2-2.8-0.3-5.2 1.7-5.5 4.4-0.4 2.7 1.6 5.2 4.3 5.5zM221.4 615.2c6.2 2.2 12.7 4.3 19.2 6.3 0.5 0.2 1 0.2 1.5 0.2 2.1 0 4.1-1.4 4.8-3.5 0.8-2.6-0.7-5.4-3.3-6.3-6.4-2-12.7-4.1-18.8-6.2-2.6-0.9-5.5 0.5-6.4 3.1-1 2.7 0.4 5.5 3 6.4zM120 565.1c0.9 0.6 1.9 0.9 2.9 0.9 1.6 0 3.1-0.7 4.1-2.1 1.6-2.2 1.1-5.4-1.1-7-5.5-3.9-10.6-8-15.4-12.1-2.1-1.8-5.2-1.6-7.1 0.5-1.8 2.1-1.6 5.2 0.5 7.1 5 4.4 10.4 8.6 16.1 12.7zM86.4 535.2c1 1.1 2.4 1.7 3.8 1.7 1.2 0 2.3-0.4 3.3-1.2 2.1-1.8 2.3-5 0.5-7.1-4.4-5-8.2-10.2-11.5-15.3-1.5-2.3-4.6-3-6.9-1.6-2.3 1.5-3 4.6-1.6 6.9 3.5 5.6 7.7 11.1 12.4 16.6zM263.8 628.3c6.4 1.7 12.9 3.4 19.5 5 0.4 0.1 0.8 0.1 1.2 0.1 2.3 0 4.3-1.5 4.9-3.8 0.7-2.7-1-5.4-3.7-6-6.5-1.6-13-3.2-19.2-5-2.7-0.7-5.4 0.8-6.1 3.5-0.9 2.7 0.7 5.5 3.4 6.2zM482.4 658.6c6.6 0.2 13.4 0.3 20.1 0.4 2.7 0 5-2.2 5-5s-2.2-5-5-5l-19.9-0.3c-2.8-0.1-5.1 2.1-5.1 4.9 0 2.6 2.2 4.9 4.9 5zM180.1 598.9c6 2.7 12.3 5.3 18.6 7.9 0.6 0.2 1.2 0.4 1.8 0.4 2 0 3.9-1.2 4.6-3.2 1-2.6-0.2-5.5-2.8-6.5-6.2-2.5-12.4-5.1-18.2-7.7-2.5-1.1-5.5 0-6.6 2.5-1.1 2.5 0 5.5 2.6 6.6zM306.8 638.7c6.5 1.4 13.1 2.7 19.7 3.9 0.3 0.1 0.6 0.1 0.9 0.1 2.4 0 4.5-1.7 4.9-4.1 0.5-2.7-1.3-5.3-4-5.8-6.6-1.2-13.1-2.5-19.5-3.9-2.7-0.6-5.4 1.2-5.9 3.9s1.2 5.3 3.9 5.9zM828.2 605.2c0.6 0 1.3-0.1 1.9-0.4 6.3-2.6 12.6-5.3 18.5-8.1 2.5-1.2 3.6-4.1 2.4-6.6-1.2-2.5-4.1-3.6-6.6-2.4-5.8 2.7-11.9 5.4-18.1 7.9-2.6 1-3.8 4-2.7 6.5 0.8 1.9 2.6 3.1 4.6 3.1zM786.8 620.2c0.5 0 1-0.1 1.5-0.2 6.5-2.1 12.9-4.3 19.1-6.5 2.6-0.9 4-3.8 3-6.4-0.9-2.6-3.8-3.9-6.4-3-6.1 2.2-12.4 4.3-18.8 6.4-2.6 0.8-4.1 3.7-3.2 6.3 0.8 2 2.7 3.4 4.8 3.4zM526.6 658.9c6.8-0.1 13.5-0.2 20.2-0.5 2.8-0.1 4.9-2.4 4.8-5.2-0.1-2.8-2.4-4.9-5.2-4.8-6.6 0.2-13.3 0.4-19.9 0.4-2.8 0-5 2.3-4.9 5.1 0 2.8 2.2 5 5 5zM933.9 531.7c0.9 0.7 2 1.1 3.1 1.1 1.5 0 2.9-0.6 3.9-1.9 4.5-5.6 8.5-11.4 11.7-17.2 1.4-2.4 0.5-5.5-1.9-6.8-2.4-1.4-5.5-0.5-6.8 1.9-3 5.3-6.6 10.6-10.8 15.8-1.7 2.2-1.4 5.4 0.8 7.1zM905.2 562.9c1 0 2.1-0.3 3-1 5.6-4.2 10.9-8.6 15.8-13 2-1.9 2.2-5 0.3-7.1-1.9-2-5-2.2-7.1-0.3-4.6 4.2-9.7 8.4-15 12.4-2.2 1.7-2.6 4.8-1 7 0.9 1.4 2.4 2 4 2zM868 586.5c0.8 0 1.6-0.2 2.4-0.6 6.1-3.3 12-6.7 17.6-10.2 2.3-1.5 3.1-4.5 1.6-6.9-1.5-2.3-4.5-3.1-6.9-1.6-5.4 3.3-11.1 6.7-17.1 9.9-2.4 1.3-3.3 4.3-2 6.8 0.9 1.6 2.6 2.6 4.4 2.6zM570.5 657.4h0.3c6.7-0.4 13.4-0.8 20.1-1.3 2.8-0.2 4.8-2.6 4.6-5.4-0.2-2.8-2.6-4.8-5.3-4.6-6.6 0.5-13.2 0.9-19.9 1.3-2.8 0.1-4.9 2.5-4.7 5.3 0.1 2.7 2.3 4.7 4.9 4.7zM614.4 654.2h0.5c6.7-0.6 13.4-1.4 20-2.1 2.7-0.3 4.7-2.8 4.4-5.5-0.3-2.7-2.8-4.7-5.5-4.4-6.5 0.8-13.2 1.5-19.8 2.1-2.7 0.3-4.8 2.7-4.5 5.5 0.2 2.4 2.4 4.4 4.9 4.4zM658.1 649c0.2 0 0.5 0 0.7-0.1 6.7-0.9 13.4-2 19.9-3 2.7-0.4 4.6-3 4.1-5.7-0.4-2.7-3-4.6-5.7-4.1-6.5 1.1-13.1 2.1-19.7 3-2.7 0.4-4.6 2.9-4.2 5.7 0.3 2.4 2.5 4.2 4.9 4.2zM744.5 632.2c0.4 0 0.8 0 1.2-0.2 6.6-1.6 13.1-3.4 19.5-5.2 2.7-0.7 4.2-3.5 3.5-6.2-0.7-2.7-3.5-4.2-6.2-3.5-6.3 1.8-12.7 3.5-19.2 5.1-2.7 0.7-4.3 3.4-3.6 6.1 0.5 2.4 2.6 3.9 4.8 3.9zM701.5 641.7c0.3 0 0.6 0 1-0.1 6.6-1.3 13.3-2.6 19.7-4 2.7-0.6 4.4-3.3 3.8-6s-3.3-4.4-6-3.8c-6.4 1.4-12.9 2.7-19.5 4-2.7 0.5-4.5 3.1-4 5.9 0.6 2.4 2.7 4 5 4zM546.4 737.1c-6.6 0.2-13.3 0.4-19.9 0.4-2.8 0-5 2.3-4.9 5.1 0 2.7 2.3 4.9 5 4.9h0.1c6.7-0.1 13.4-0.2 20.1-0.5 2.8-0.1 4.9-2.4 4.8-5.2-0.1-2.6-2.4-4.8-5.2-4.7zM677.1 724.6c-6.5 1.1-13.1 2.1-19.7 3-2.7 0.4-4.6 2.9-4.2 5.7 0.4 2.5 2.5 4.3 4.9 4.3 0.2 0 0.5 0 0.7-0.1 6.7-0.9 13.4-2 19.9-3 2.7-0.4 4.6-3 4.1-5.7-0.4-2.8-3-4.6-5.7-4.2zM762.5 705.9c-6.3 1.8-12.7 3.5-19.2 5.1-2.7 0.7-4.3 3.4-3.6 6.1 0.6 2.3 2.6 3.8 4.8 3.8 0.4 0 0.8 0 1.2-0.2 6.6-1.6 13.1-3.4 19.5-5.2 2.7-0.7 4.2-3.5 3.5-6.2-0.8-2.6-3.5-4.2-6.2-3.4zM720.1 716.4c-6.4 1.4-12.9 2.7-19.5 4-2.7 0.5-4.5 3.1-4 5.9 0.5 2.4 2.6 4.1 4.9 4.1 0.3 0 0.6 0 1-0.1 6.6-1.3 13.3-2.6 19.7-4 2.7-0.6 4.4-3.3 3.8-6s-3.2-4.5-5.9-3.9zM633.7 730.7c-6.5 0.8-13.2 1.5-19.8 2.1-2.7 0.3-4.8 2.7-4.5 5.5 0.2 2.6 2.4 4.5 5 4.5h0.5c6.7-0.6 13.4-1.4 20-2.1 2.7-0.3 4.7-2.8 4.4-5.5-0.3-2.9-2.8-4.8-5.6-4.5zM590.2 734.8c-6.6 0.5-13.2 0.9-19.9 1.3-2.8 0.1-4.9 2.5-4.7 5.3 0.1 2.7 2.4 4.7 5 4.7h0.3c6.7-0.4 13.4-0.8 20.1-1.3 2.8-0.2 4.8-2.6 4.6-5.4-0.3-2.7-2.7-4.8-5.4-4.6zM502.6 737.6l-19.9-0.3c-2.8-0.1-5.1 2.1-5.1 4.9-0.1 2.8 2.1 5.1 4.9 5.1 6.6 0.2 13.4 0.3 20.1 0.4 2.7 0 5-2.2 5-5s-2.2-5.1-5-5.1zM804.1 692.7c-6.1 2.2-12.4 4.3-18.8 6.4-2.6 0.8-4.1 3.7-3.2 6.3 0.7 2.1 2.6 3.5 4.8 3.5 0.5 0 1-0.1 1.5-0.2 6.5-2.1 12.9-4.3 19.1-6.5 2.6-0.9 4-3.8 3-6.4-0.9-2.7-3.8-4.1-6.4-3.1zM917.2 630.1c-4.6 4.2-9.7 8.4-15 12.4-2.2 1.7-2.6 4.8-1 7 1 1.3 2.5 2 4 2 1 0 2.1-0.3 3-1 5.6-4.2 10.9-8.6 15.8-13 2-1.9 2.2-5 0.3-7.1-1.9-2-5.1-2.1-7.1-0.3zM882.7 655.8c-5.4 3.3-11.1 6.7-17.1 9.9-2.4 1.3-3.3 4.3-2 6.8 0.9 1.7 2.6 2.6 4.4 2.6 0.8 0 1.6-0.2 2.4-0.6 6.1-3.3 12-6.7 17.6-10.2 2.3-1.5 3.1-4.5 1.6-6.9-1.5-2.3-4.5-3-6.9-1.6zM844.4 676.3c-5.8 2.7-11.9 5.4-18.1 7.9-2.6 1-3.8 4-2.7 6.5 0.8 1.9 2.7 3.1 4.6 3.1 0.6 0 1.3-0.1 1.9-0.4 6.3-2.6 12.6-5.3 18.5-8.1 2.5-1.2 3.6-4.1 2.4-6.6-1.1-2.5-4-3.6-6.6-2.4zM162.8 668.1c-6-3.1-11.8-6.3-17.2-9.6-2.4-1.4-5.4-0.6-6.9 1.7-1.4 2.4-0.6 5.4 1.7 6.9 5.6 3.4 11.6 6.7 17.7 9.9 0.7 0.4 1.5 0.6 2.3 0.6 1.8 0 3.5-1 4.4-2.7 1.4-2.5 0.5-5.5-2-6.8zM243.5 700.6c-6.4-2-12.7-4.1-18.8-6.2-2.6-0.9-5.5 0.5-6.4 3.1-0.9 2.6 0.5 5.5 3.1 6.4 6.2 2.2 12.7 4.3 19.2 6.3 0.5 0.2 1 0.2 1.5 0.2 2.1 0 4.1-1.4 4.8-3.5 0.7-2.7-0.7-5.5-3.4-6.3zM82.5 601.9c-1.5-2.3-4.6-3-6.9-1.6-2.3 1.5-3 4.6-1.6 6.9 3.5 5.6 7.7 11.2 12.4 16.6 1 1.1 2.4 1.7 3.8 1.7 1.2 0 2.3-0.4 3.3-1.2 2.1-1.8 2.3-5 0.5-7.1-4.4-5-8.3-10.2-11.5-15.3zM202.4 686.1c-6.2-2.5-12.4-5.1-18.2-7.7-2.5-1.1-5.5 0-6.6 2.5-1.1 2.5 0 5.5 2.5 6.6 6 2.7 12.3 5.3 18.6 7.9 0.6 0.2 1.2 0.4 1.8 0.4 2 0 3.9-1.2 4.6-3.2 1.1-2.5-0.1-5.5-2.7-6.5zM125.9 645.6c-5.5-3.9-10.6-8-15.4-12.1-2.1-1.8-5.2-1.6-7.1 0.5-1.8 2.1-1.6 5.2 0.5 7.1 4.9 4.3 10.3 8.5 16.1 12.6 0.9 0.6 1.9 0.9 2.9 0.9 1.6 0 3.1-0.7 4.1-2.1 1.6-2.1 1.1-5.2-1.1-6.9zM285.6 712.2c-6.5-1.6-13-3.2-19.2-5-2.7-0.7-5.4 0.8-6.1 3.5-0.7 2.7 0.8 5.4 3.5 6.1 6.4 1.7 12.9 3.4 19.5 5 0.4 0.1 0.8 0.1 1.2 0.1 2.3 0 4.3-1.5 4.9-3.8 0.6-2.5-1.1-5.2-3.8-5.9zM371.6 728.3c-6.6-0.9-13.2-1.9-19.7-2.9-2.7-0.4-5.3 1.4-5.7 4.2-0.4 2.7 1.4 5.3 4.2 5.7 6.6 1 13.2 2 19.9 2.9h0.7c2.5 0 4.6-1.8 4.9-4.3 0.4-2.7-1.5-5.2-4.3-5.6zM415.1 733.3c-6.6-0.6-13.2-1.3-19.8-2-2.8-0.3-5.2 1.7-5.5 4.4-0.3 2.7 1.7 5.2 4.4 5.5 6.6 0.7 13.4 1.4 20 2h0.5c2.6 0 4.7-2 5-4.5 0.2-2.7-1.8-5.2-4.6-5.4zM328.4 721.4c-6.6-1.2-13.1-2.5-19.5-3.9-2.7-0.6-5.4 1.2-5.9 3.9-0.6 2.7 1.2 5.4 3.9 5.9 6.5 1.4 13.1 2.7 19.7 3.9 0.3 0.1 0.6 0.1 0.9 0.1 2.4 0 4.5-1.7 4.9-4.1 0.5-2.7-1.3-5.3-4-5.8zM458.8 736.3c-6.6-0.3-13.3-0.7-19.9-1.2-2.7-0.2-5.1 1.9-5.3 4.7-0.2 2.8 1.9 5.1 4.6 5.3 6.6 0.5 13.4 0.8 20.1 1.2h0.2c2.6 0 4.9-2.1 5-4.8 0.2-2.7-1.9-5-4.7-5.2z" fill="#3A3A3A" p-id="16822"></path><path d="M965 418.9c0-0.6-0.1-1.2-0.3-1.7-2.3-39-32.1-75.9-86.6-107-54.5-31.1-129.4-54.3-216.6-66.9h-0.4c-21.2-2.5-42.1 3.1-58.8 15.8-16.8 12.9-27.5 31.5-30 52.6s3.4 42.1 16.6 58.9c13.2 16.9 32.2 27.5 53.3 30.1h0.6c0.1 0 0.3 0.1 0.4 0.1 116.8 15.6 213.7 51.6 267.4 99-21.3 17.8-49.4 34-84 48.2-84 34.6-195.8 53.6-314.8 53.6S281 582.5 197 548c-34.6-14.2-62.7-30.4-84-48.2 52.1-46.1 145.9-81.6 258.6-97.8 0.1 0 0.2-0.1 0.3-0.1h0.1c21.1-2.5 40.1-13.2 53.3-30 13.2-16.8 19.1-37.7 16.6-58.9-5.1-42.7-45.1-73.4-89.2-68.4h-0.1-0.1c-84.8 13.2-157.4 36.5-209.9 67.2C88 343.9 59 382 59 422.1c0 1.3 0 2.6 0.1 3.8v84.4c-0.1 0.3-0.1 0.6-0.1 1 0 1.3 0 2.6 0.1 3.8v61.8c-0.1 1.6-0.1 3.3-0.1 4.9 0 54.1 47.7 104.6 134.2 142.3 85.2 37 198.4 57.4 318.7 57.4s233.5-20.4 318.7-57.4c86.1-37.4 133.7-87.7 134.2-141.5 0.1-0.4 0.2-0.8 0.2-1.2V418.9z m-320.3-28.2h-0.6c-0.2 0-0.4-0.1-0.6-0.1-38.3-4.6-65.8-39.5-61.2-77.9 2.2-18.4 11.5-34.7 26.2-45.9 14.6-11.2 32.9-16.1 51.5-13.8h0.1c86 12.5 159.7 35.2 213.1 65.7 53.4 30.6 81.7 66.3 81.7 103.3 0 23.5-11.3 46.4-33.7 68.2-0.9 0.9-1.9 1.8-2.9 2.7-55-49-154.3-86.2-273.6-102.2z m-496.9-70.3c51.4-30.1 122.7-52.9 206.2-65.9 38.6-4.3 73.6 22.4 78.1 59.7 2.2 18.5-3 36.8-14.5 51.5-11.6 14.7-28.2 24-46.7 26.2-0.2 0-0.3 0.1-0.4 0.1h-0.1C255.1 408.6 159 445.3 105.6 493c-1-0.9-1.9-1.8-2.9-2.7-21.2-20.6-32.5-42.4-33.6-64.6v-1.5c0-0.3 0-0.5-0.1-0.8V422c0-36.2 27.2-71.4 78.8-101.6z m45.5 236.7c85.2 35.1 198.3 54.4 318.6 54.4s233.4-19.3 318.6-54.4C894.3 530.9 936.9 498 955 462v6.4c-0.1 0.4-0.2 0.8-0.2 1.2 0 6.2-0.8 12.4-2.4 18.5-0.6 2.3 0.5 4.6 2.5 5.7v16.4c-0.1 0.4-0.2 0.8-0.2 1.2 0 23.5-11.3 46.4-33.7 68.2-22.1 21.5-53.9 40.9-94.4 57.6-84 34.6-195.8 53.6-314.8 53.6S281 671.7 197 637.2c-40.5-16.7-72.3-36.1-94.4-57.6C81.4 559 70.1 537.2 69 515v-15.7c0.2 0 0.3-0.1 0.5-0.1 2.6-0.9 4.1-3.7 3.2-6.3-2-6-3.2-12.2-3.6-18.3 0-0.1 0-0.3-0.1-0.4v-11.6c18.3 35.7 60.9 68.4 124.3 94.5z m727.8 97c-22.1 22.7-53.9 43.2-94.4 60.8-84 36.5-195.8 56.6-314.7 56.6s-230.7-20.1-314.7-56.6c-40.5-17.6-72.3-38.1-94.4-60.8-20.6-21.2-31.9-43.5-33.6-66.3 0.1 0 0.2 0 0.3-0.1 2.6-0.9 4.1-3.7 3.2-6.3-2-6-3.2-12.2-3.6-18.3 0-0.1 0-0.3-0.1-0.4v-11c18.2 35.8 60.8 68.5 124.2 94.6 85.2 35.1 198.3 54.4 318.6 54.4s233.4-19.3 318.6-54.4c63.7-26.2 106.4-59.1 124.5-95.1v5.8c-0.1 0.4-0.2 0.8-0.2 1.2 0 6.2-0.8 12.4-2.4 18.5-0.6 2.2 0.5 4.5 2.4 5.6 0 5.5-0.6 11-1.7 16.4-0.3-1.2-1.2-2.3-2.4-3-2.4-1.4-5.5-0.5-6.8 1.9-3 5.3-6.6 10.6-10.8 15.8-1.7 2.1-1.4 5.3 0.7 7 0.9 0.7 2 1.1 3.1 1.1 1.5 0 2.9-0.6 3.9-1.9 4.2-5.1 7.8-10.4 10.9-15.7-4.6 17.2-14.9 34-30.6 50.2z" fill="#3A3A3A" p-id="16823"></path></svg>