<?xml version="1.0" standalone="no"?><!DOCTYPE svg PUBLIC "-//W3C//DTD SVG 1.1//EN" "http://www.w3.org/Graphics/SVG/1.1/DTD/svg11.dtd"><svg t="1617803299082" class="icon" viewBox="0 0 1024 1024" version="1.1" xmlns="http://www.w3.org/2000/svg" p-id="18401" xmlns:xlink="http://www.w3.org/1999/xlink" width="200" height="200"><defs><style type="text/css"></style></defs><path d="M731.538648 118.16339h-435.329842c-41.313217 0-74.800689 33.489905-74.800689 74.800688v571.670998c0 41.310784 33.487472 74.799473 74.800689 74.799472h435.329842c41.314433 0 74.803122-33.488689 74.803121-74.799472V192.964078c0-41.309568-33.488689-74.800689-74.803121-74.800688z m27.624853 620.288161c0 33.476525-22.312008 55.7861-55.792182 55.7861H323.109955c-33.480174 0-55.790966-22.309575-55.790966-55.7861V217.635729c0-33.477742 22.310791-55.788533 55.790966-55.788533h380.260148c33.480174 0 55.792182 22.309575 55.792182 55.788533v520.815822z" p-id="18402"></path><path d="M310.662229 320.393325c0 12.638687-10.243771 22.882457-22.883674 22.882457H198.535391c-12.638687 0-22.883674-10.244987-22.883674-22.882457 0-12.638687 10.244987-22.883674 22.883674-22.883674h89.244381c12.638687 0 22.882457 10.243771 22.882457 22.883674zM311.885838 632.557089c0 12.754236-10.337427 23.090446-23.08923 23.090447H198.748245c-12.751804 0-23.08923-10.33621-23.08923-23.090447 0-12.751804 10.337427-23.088014 23.08923-23.088013h90.048363c12.751804-0.001216 23.08923 10.334994 23.08923 23.088013z" p-id="18403"></path></svg>