<?xml version="1.0" standalone="no"?><!DOCTYPE svg PUBLIC "-//W3C//DTD SVG 1.1//EN" "http://www.w3.org/Graphics/SVG/1.1/DTD/svg11.dtd"><svg t="1617803201421" class="icon" viewBox="0 0 1228 1024" version="1.1" xmlns="http://www.w3.org/2000/svg" p-id="18243" xmlns:xlink="http://www.w3.org/1999/xlink" width="239.84375" height="200"><defs><style type="text/css"></style></defs><path d="M39.146435 529.170523l-26.923129-20.490169a30.735253 30.735253 0 0 1-5.956444-43.124657L256.19927 136.045191a30.973511 30.973511 0 0 1 43.839431-5.241671l122.22624 97.447431a30.973511 30.973511 0 0 0 41.933368-3.335609l198.706987-214.432a30.735253 30.735253 0 0 1 45.268977 0L1139.659108 450.307199a30.735253 30.735253 0 0 1-1.667805 43.362915l-23.825777 23.825778a30.973511 30.973511 0 0 1-43.601174-1.667804L708.174273 150.340657a30.496995 30.496995 0 0 0-45.268977 0l-188.938418 204.425173a30.735253 30.735253 0 0 1-41.695111 3.097351l-115.316764-91.729244a30.735253 30.735253 0 0 0-43.839431 5.479929L82.271093 524.16711a30.735253 30.735253 0 0 1-43.124658 5.003413z" p-id="18244"></path><path d="M13.414595 705.957794m30.735253 0l1062.153171 0q30.735253 0 30.735253 30.735253l0 33.832605q0 30.735253-30.735253 30.735253l-1062.153171 0q-30.735253 0-30.735253-30.735253l0-33.832605q0-30.735253 30.735253-30.735253Z" p-id="18245"></path><path d="M13.414595 861.540122m30.735253 0l1062.153171 0q30.735253 0 30.735253 30.735254l0 33.832604q0 30.735253-30.735253 30.735253l-1062.153171 0q-30.735253 0-30.735253-30.735253l0-33.832604q0-30.735253 30.735253-30.735254Z" p-id="18246"></path><path d="M280.501563 652.82631A77.672035 77.672035 0 1 1 357.458825 575.154274a77.672035 77.672035 0 0 1-76.957262 77.672036z m0-107.692516A30.02048 30.02048 0 1 0 309.80727 575.154274a30.258738 30.258738 0 0 0-29.305707-30.02048zM590.713189 583.731554A76.957262 76.957262 0 1 1 667.193936 506.774292a76.957262 76.957262 0 0 1-76.480747 76.957262z m0-106.262968A29.305707 29.305707 0 1 0 619.54238 506.774292 29.305707 29.305707 0 0 0 590.713189 476.515554zM708.650789 407.659057a75.765973 75.765973 0 1 1 75.765973-75.765973 75.765973 75.765973 0 0 1-75.765973 75.765973z m0-103.642133a28.114418 28.114418 0 1 0 28.114418 27.87616 27.87616 27.87616 0 0 0-28.114418-27.87616zM801.094806 583.731554a76.957262 76.957262 0 1 1 76.957262-76.957262 77.19552 77.19552 0 0 1-76.957262 76.957262z m0-106.262968a29.305707 29.305707 0 1 0 29.305707 29.305706A29.543964 29.543964 0 0 0 801.094806 476.515554z" p-id="18247"></path></svg>