<?xml version="1.0" standalone="no"?><!DOCTYPE svg PUBLIC "-//W3C//DTD SVG 1.1//EN" "http://www.w3.org/Graphics/SVG/1.1/DTD/svg11.dtd"><svg t="1617803050796" class="icon" viewBox="0 0 1024 1024" version="1.1" xmlns="http://www.w3.org/2000/svg" p-id="17348" xmlns:xlink="http://www.w3.org/1999/xlink" width="200" height="200"><defs><style type="text/css"></style></defs><path d="M591.872 242.688C587.776-53.248 281.6 11.264 281.6 11.264c0 165.888-130.048 217.088-190.464 232.448l-13.312 2.048c4.096 0 8.192 2.048 13.312 3.072 61.44 15.36 190.464 66.56 190.464 232.448 0 0 306.176 64.512 310.272-232.448v-6.144z" p-id="17349"></path><path d="M591.872 775.168C587.776 479.232 281.6 542.72 281.6 542.72c0 165.888-130.048 217.088-190.464 232.448l-13.312 3.072c4.096 0 8.192 2.048 13.312 3.072 61.44 15.36 190.464 66.56 190.464 232.448 0 0 306.176 64.512 310.272-232.448v-6.144z" p-id="17350"></path><path d="M946.176 508.928C942.08 212.992 635.904 276.48 635.904 276.48c0 165.888-130.048 217.088-190.464 232.448l-13.312 3.072c4.096 0 8.192 2.048 13.312 3.072 61.44 15.36 190.464 66.56 190.464 232.448 0 0 306.176 64.512 310.272-232.448v-6.144z" p-id="17351"></path></svg>