<?xml version="1.0" standalone="no"?><!DOCTYPE svg PUBLIC "-//W3C//DTD SVG 1.1//EN" "http://www.w3.org/Graphics/SVG/1.1/DTD/svg11.dtd"><svg t="1617802856894" class="icon" viewBox="0 0 1024 1024" version="1.1" xmlns="http://www.w3.org/2000/svg" p-id="17131" xmlns:xlink="http://www.w3.org/1999/xlink" width="200" height="200"><defs><style type="text/css"></style></defs><path d="M682.118 751.819 556.793 751.819c84.649-46.545 142.15-136.589 142.15-239.816 0-150.792-122.681-273.475-273.47-273.475C274.683 238.528 152 361.211 152 512.003s122.683 273.469 273.473 273.469c5.671 0 11.296-0.191 16.886-0.534 1.329 0.338 2.712 0.534 4.152 0.534l235.606 0c9.29 0 16.825-7.535 16.825-16.827C698.943 759.348 691.408 751.819 682.118 751.819L682.118 751.819zM191.396 533.258c-1.317-2.363-3.125-4.27-5.219-5.697-0.331-5.146-0.521-10.329-0.521-15.558 0-12.073 0.909-23.938 2.636-35.538 54.579 73.748 145.072 118.64 243.046 119.048-6.329 23.724-9.998 48.104-10.938 72.647C323.31 664.195 235.655 612.611 191.396 533.258L191.396 533.258zM210.462 405.875c10.715 12.388 22.401 23.745 34.925 33.992 4.133 3.38 8.354 6.644 12.663 9.782 43.08 31.382 94.699 50.508 149.672 54.96 8.248 0.671 51.364 0.146 64.406-1.554-0.559 0.866-1.148 1.708-1.697 2.582-11.715 18.633-34.584 56.235-37.762 56.235-96.988 0-185.675-48.598-231.459-126.834-0.569-0.971-1.222-1.862-1.942-2.673C202.479 423.271 206.224 414.432 210.462 405.875L210.462 405.875zM498.928 523.55c33.79-53.746 82.771-94.338 141.668-117.443 9.943 20.127 17.154 41.828 21.126 64.635-43.686 18.033-80.114 48.772-105.354 88.92-31.688 50.4-42.195 111.647-29.448 169.605-20.315 9.528-42.175 16.302-65.099 19.8C443.478 672.278 456.856 590.474 498.928 523.55L498.928 523.55zM557.842 711.872c-7.602-46.296 1.882-94.308 27.022-134.293 19.663-31.284 47.313-55.829 80.348-71.543 0.05 1.982 0.077 3.972 0.077 5.967C665.283 595.34 622.546 668.874 557.842 711.872L557.842 711.872zM425.473 326.881c40.87 0 82.125-11.485 98.18-33.659 21.323 9.606 41.003 22.241 58.479 37.354-42.427 33.207-95.226 51.468-149.462 51.468-56.422 0-111.315-19.711-154.57-55.506-0.771-0.639-1.589-1.182-2.432-1.659 15.715-12.605 33.039-23.286 51.62-31.657C343.345 315.396 384.604 326.881 425.473 326.881L425.473 326.881zM487.578 280.36c-11.008 6.104-31.675 12.863-62.104 12.863-30.445 0-51.112-6.766-62.12-12.863 19.821-5.318 40.64-8.174 62.12-8.174C446.945 272.187 467.766 275.04 487.578 280.36L487.578 280.36zM252.079 346.496c1.025 2.243 2.539 4.299 4.562 5.975 49.277 40.776 111.793 63.233 176.029 63.233 63.147 0 124.627-21.718 173.504-61.189 6.173 7.072 11.929 14.516 17.256 22.276-48.533 19.925-90.828 50.604-124.458 90.059-2.999-1.215-6.387-1.57-9.801-0.838-18.417 3.946-37.429 5.947-56.5 5.947-24.766 0-48.951-3.316-71.981-9.688-50.663-14.017-95.732-42.813-129.102-83.548-0.976-1.193-2.093-2.202-3.294-3.052C235.465 365.331 243.417 355.575 252.079 346.496L252.079 346.496zM205.95 608.49c54.302 55.92 131.528 90.401 214.712 93.386 0.056 0 0.115 0 0.174 0 1.071 16.721 3.429 33.409 7.088 49.907-0.816 0.013-1.631 0.036-2.452 0.036C327.547 751.819 243.157 692.81 205.95 608.49L205.95 608.49zM205.95 608.49" p-id="17132"></path><path d="M859.95 690l-89.754 0C830.818 657 872 591.548 872 517.623c0-107.989-87.858-196.166-195.846-196.166-18.114 0-35.659 2.324-52.317 6.948 6.123 6.566 11.921 13.359 17.363 20.521 11.293-2.35 22.977-3.643 34.954-3.643 15.378 0 30.289 2.024 44.477 5.833-7.88 4.373-22.685 9.202-44.477 9.202-11.694 0-21.356-1.404-29.032-3.371 6.06 8.625 11.62 17.622 16.642 26.956 4.101 0.328 8.246 0.512 12.391 0.512 29.271 0 58.815-8.227 70.312-24.107 15.27 6.879 29.36 16.97 41.882 27.794C757.962 411.881 720.151 426 681.308 426c-0.032 0-0.065 0-0.102 0 2.669 7 4.972 14.78 6.91 22.918 42.815-1.477 84.204-17.347 117.448-44.196 4.421 5.066 8.541 10.136 12.355 15.694-34.756 14.271-65.042 36.109-89.131 64.366-2.146-0.871-4.572-1.191-7.018-0.666-8.943 1.916-18.082 3.143-27.301 3.766 0.598 7.26 0.914 14.585 0.914 22 0 0.544-0.019 1.076-0.021 1.62 5.936-0.218 11.193-0.525 14.203-0.917-0.398 0.62-0.823 1.219-1.214 1.846-3.773 6-9.161 14.745-14.154 22.556-2.675 28.565-9.857 55.819-20.834 81.044-0.394 4.254-0.68 8.518-0.84 12.79-1.672-0.07-3.333-0.174-4.996-0.283-3.949 7.919-8.273 16.129-12.962 23.574 5.996 0.682 12.045 1.889 18.143 1.889 0.041 0 0.083 0 0.127 0 0.766 15 2.454 23.408 5.073 35.221-0.584 0.012-1.165-0.23-1.755-0.23-15.424 0-30.374-2.179-44.605-6.011-5.833 6.821-11.994 13.288-18.48 19.486 19.803 6.76 41.021 10.399 63.086 10.399 4.063 0 8.09 0.93 12.095 0.685 0.95 0.24 1.941 1.45 2.972 1.45L859.95 715.001c6.654 0 12.05-5.844 12.05-12.5S866.604 690 859.95 690zM702.186 686.759c-13.138-54.989-3.556-113.575 26.573-161.501 24.199-38.493 59.277-67.561 101.456-84.109 7.12 14.413 12.284 29.956 15.132 46.29-31.285 12.915-57.377 34.926-75.453 63.677-22.689 36.097-30.217 79.959-21.089 121.464C734.256 679.403 718.601 684.252 702.186 686.759zM790.303 563.947c14.08-22.402 33.883-39.979 57.54-51.234 0.035 1.421 0.055 2.843 0.055 4.273-0.003 59.683-30.611 112.343-76.949 143.138C765.506 626.968 772.301 592.586 790.303 563.947z" p-id="17133"></path></svg>