<?xml version="1.0" standalone="no"?><!DOCTYPE svg PUBLIC "-//W3C//DTD SVG 1.1//EN" "http://www.w3.org/Graphics/SVG/1.1/DTD/svg11.dtd"><svg t="1617784991041" class="icon" viewBox="0 0 1024 1024" version="1.1" xmlns="http://www.w3.org/2000/svg" p-id="2959" xmlns:xlink="http://www.w3.org/1999/xlink" width="200" height="200"><defs><style type="text/css"></style></defs><path d="M389.051733 387.208533L104.106667 721.066667l-1.194667 1.450666c-37.751467 49.5616-11.810133 121.941333 49.066667 135.509334 79.735467 17.783467 188.330667 28.757333 330.069333 29.3888l12.970667 0.034133c153.480533 0 302.336-12.680533 377.412266-29.422933 60.893867-13.568 86.869333-85.947733 49.083734-135.509334l-1.194667-1.450666-284.910933-333.8752-1.8432-1.979734c-67.0208-67.0208-175.684267-67.0208-242.705067 0l-1.826133 1.979734z m195.464534 45.533867L867.498667 764.330667l-0.256-0.4096c7.697067 10.103467 2.423467 24.797867-9.642667 27.477333l-9.489067 2.013867C775.509333 807.970133 637.44 819.2 495.035733 819.2c-143.325867 0-251.204267-10.5984-328.192-27.767467l-1.928533-0.5632c-10.0352-3.5328-14.4384-15.803733-8.840533-25.207466l0.8704-1.314134 282.9824-331.588266-0.785067 0.750933a103.355733 103.355733 0 0 1 143.018667-3.0208l2.3552 2.269867z" fill="#444444" p-id="2960"></path><path d="M231.253333 383.095467a42.274133 42.274133 0 0 1-1.058133-7.543467c-1.0752-21.742933 14.472533-40.448 30.378667-47.6672 16.520533-7.509333 33.4848-3.618133 45.397333 10.3424 8.482133 9.8816 11.810133 22.954667 9.250133 35.84-3.976533 19.831467-20.7872 34.3552-35.328 38.485333a36.727467 36.727467 0 0 1-26.0096-1.962666 40.5504 40.5504 0 0 1-22.6304-27.4944M579.822933 265.335467a44.032 44.032 0 0 1-5.051733-6.126934c-12.782933-18.773333-9.1136-43.861333 1.1264-58.9312 10.5984-15.616 27.784533-21.4016 45.994667-15.479466a43.946667 43.946667 0 0 1 27.6992 26.845866c7.236267 19.8144 0.187733 41.8816-10.513067 53.4528a38.1952 38.1952 0 0 1-24.183467 12.3904 42.308267 42.308267 0 0 1-35.072-12.151466M546.030933 161.826133c2.082133-2.082133 3.9936-4.386133 5.7344-6.877866 14.506667-21.111467 10.496-49.425067-0.955733-66.474667-11.861333-17.681067-31.232-24.302933-51.797333-17.7152a49.681067 49.681067 0 0 0-31.402667 30.139733c-8.260267 22.289067-0.426667 47.2064 11.5712 60.330667 7.424 8.055467 16.810667 12.936533 27.221333 14.114133a47.701333 47.701333 0 0 0 39.6288-13.5168M396.731733 310.101333a34.338133 34.338133 0 0 1-4.027733-4.9152c-10.24-15.018667-7.287467-35.072 0.887467-47.121066 8.465067-12.509867 22.237867-17.134933 36.795733-12.3904a35.157333 35.157333 0 0 1 22.1696 21.486933c5.7856 15.837867 0.136533 33.4848-8.413867 42.752a30.583467 30.583467 0 0 1-19.3536 9.898667 33.826133 33.826133 0 0 1-28.0576-9.728" fill="#444444" p-id="2961"></path><path d="M409.6 580.266667a34.133333 34.133333 0 0 1 27.767467 53.981866l-0.1024 0.1536a34.304 34.304 0 0 1-2.338134 2.884267L329.079467 768h-87.6544l140.407466-173.431467A34.082133 34.082133 0 0 1 409.6 580.266667z" fill="#00B386" p-id="2962"></path></svg>