<?xml version="1.0" standalone="no"?><!DOCTYPE svg PUBLIC "-//W3C//DTD SVG 1.1//EN" "http://www.w3.org/Graphics/SVG/1.1/DTD/svg11.dtd"><svg t="1617784829936" class="icon" viewBox="0 0 1024 1024" version="1.1" xmlns="http://www.w3.org/2000/svg" p-id="1348" xmlns:xlink="http://www.w3.org/1999/xlink" width="200" height="200"><defs><style type="text/css"></style></defs><path d="M512 68.266667a34.133333 34.133333 0 1 1 0 68.266666 373.981867 373.981867 0 0 0-265.489067 109.960534 376.132267 376.132267 0 0 0-80.4864 119.364266A374.562133 374.562133 0 0 0 136.533333 512c0 50.875733 10.120533 100.317867 29.474134 146.141867a376.081067 376.081067 0 0 0 80.503466 119.3472 376.32 376.32 0 0 0 119.3472 80.4864A374.272 374.272 0 0 0 512 887.466667c50.875733 0 100.3008-10.120533 146.141867-29.4912a376.098133 376.098133 0 0 0 119.3472-80.4864 376.064 376.064 0 0 0 80.4864-119.3472A374.340267 374.340267 0 0 0 887.466667 512a374.272 374.272 0 0 0-29.4912-146.141867 34.133333 34.133333 0 1 1 62.8736-26.589866A442.538667 442.538667 0 0 1 955.733333 512c0 60.074667-11.946667 118.545067-34.884266 172.7488a444.330667 444.330667 0 0 1-95.0784 141.0048 444.3648 444.3648 0 0 1-141.038934 95.095467A442.658133 442.658133 0 0 1 512.017067 955.733333a442.538667 442.538667 0 0 1-172.7488-34.884266 444.586667 444.586667 0 0 1-141.038934-95.0784 444.3648 444.3648 0 0 1-95.095466-141.038934A442.88 442.88 0 0 1 68.266667 512c0-60.074667 11.963733-118.528 34.8672-172.7488a444.416 444.416 0 0 1 95.095466-141.038933A442.231467 442.231467 0 0 1 512 68.266667z" fill="#444444" p-id="1349"></path><path d="M444.330667 445.781333v-28.842666c0-8.2432-2.833067-15.189333-8.430934-20.872534a27.630933 27.630933 0 0 0-20.241066-8.482133h-51.712c-2.048 0-3.072 1.024-3.072 3.089067v81.373866c0 1.723733 1.024 2.56 3.072 2.56h51.712c7.850667 0 14.609067-2.833067 20.241066-8.4992 5.597867-5.632 8.430933-12.424533 8.430934-20.309333z m74.769066-0.341333c0 28.672-10.171733 53.162667-30.464 73.454933-20.343467 20.3264-44.6464 30.464-72.977066 30.464h-51.712c-2.048 0-3.072 0.8704-3.072 2.577067v121.736533c0 10.257067-3.669333 19.114667-11.008 26.453334-7.338667 7.355733-16.128 11.042133-26.368 11.042133s-19.029333-3.6864-26.368-11.042133a35.959467 35.959467 0 0 1-11.008-26.402134V350.242133c0-10.24 3.669333-19.0464 11.008-26.402133 7.338667-7.338667 16.128-11.008 26.368-11.008h92.16c28.330667 0 52.6336 10.154667 72.977066 30.446933 20.309333 20.3264 30.464 44.8 30.464 73.489067v28.672zM697.258667 607.453867v-97.7408c0-7.901867-2.816-14.728533-8.448-20.411734-5.632-5.6832-12.526933-8.533333-20.736-8.533333h-1.536c-8.192 0-15.121067 2.850133-20.736 8.533333-5.632 5.6832-8.482133 12.509867-8.482134 20.411734v97.7408c0 7.936 2.833067 14.7456 8.465067 20.4288 5.632 5.6832 12.561067 8.533333 20.736 8.533333h1.536c8.226133 0 15.121067-2.850133 20.736-8.533333 5.632-5.6832 8.465067-12.4928 8.465067-20.4288z m74.752-0.392534c0 28.706133-10.171733 53.248-30.464 73.591467-20.309333 20.343467-44.817067 30.5152-73.489067 30.5152h-1.536c-28.637867 0-53.162667-10.171733-73.454933-30.498133-20.3264-20.343467-30.464-44.885333-30.464-73.5744v-256.853334c0-10.24 3.652267-19.0464 10.990933-26.385066 7.338667-7.355733 16.128-11.025067 26.368-11.025067 10.581333 0 19.456 3.6864 26.624 11.076267 7.168 7.338667 10.752 16.213333 10.752 26.487466v57.6512c0 1.706667 1.024 2.389333 3.089067 2.048a84.992 84.992 0 0 1 26.112-4.096h1.536c28.672 0 53.1456 10.1888 73.454933 30.532267 20.309333 20.343467 30.464 44.868267 30.464 73.591467v96.938666z" fill="#444444" p-id="1350"></path><path d="M601.378133 77.277867a440.285867 440.285867 0 0 1 158.754134 66.798933 446.890667 446.890667 0 0 1 113.732266 111.0528l6.075734 8.772267-56.593067 38.1952c-13.482667-19.968-28.842667-38.587733-45.841067-55.586134a375.569067 375.569067 0 0 0-119.3472-80.4864 372.360533 372.360533 0 0 0-60.1088-19.592533l-10.325333-2.269867 13.653333-66.884266z" fill="#00B386" p-id="1351"></path></svg>