<?xml version="1.0" standalone="no"?><!DOCTYPE svg PUBLIC "-//W3C//DTD SVG 1.1//EN" "http://www.w3.org/Graphics/SVG/1.1/DTD/svg11.dtd"><svg t="1617799792889" class="icon" viewBox="0 0 1024 1024" version="1.1" xmlns="http://www.w3.org/2000/svg" p-id="4066" xmlns:xlink="http://www.w3.org/1999/xlink" width="200" height="200"><defs><style type="text/css"></style></defs><path d="M774.826667 336.674133a34.133333 34.133333 0 0 1 40.686933 22.391467l0.7168 2.440533 41.4208 165.632a34.133333 34.133333 0 0 1-26.0096 41.659734l-2.474667 0.443733L571.733333 604.501333a34.133333 34.133333 0 0 1-38.3488-39.185066l0.477867-2.389334 41.4208-177.425066a34.133333 34.133333 0 0 1 66.9696 13.021866l-0.494933 2.5088-30.139734 129.092267 170.564267-23.381333-32.187733-128.682667a34.133333 34.133333 0 0 1 22.391466-40.686933l2.440534-0.699734z" fill="#444444" p-id="4067"></path><path d="M506.1632 102.8608l-173.6704 28.672c-28.740267 4.744533-38.7072 40.994133-16.452267 59.767467l270.455467 228.061866a34.133333 34.133333 0 0 0 27.579733 7.594667l173.687467-28.689067c28.740267-4.744533 38.7072-40.994133 16.4352-59.784533L533.725867 110.4384a34.133333 34.133333 0 0 0-27.562667-7.5776z m-4.420267 69.905067l201.864534 170.205866-85.1456 14.062934-201.847467-170.205867 85.128533-14.062933z" fill="#444444" p-id="4068"></path><path d="M305.834667 156.8256a34.133333 34.133333 0 0 1 65.194666 20.104533l-0.785066 2.56-44.475734 126.293334 264.260267 239.616a34.133333 34.133333 0 0 1 4.232533 45.9264l-1.877333 2.269866a34.133333 34.133333 0 0 1-45.943467 4.2496l-2.269866-1.877333-281.0368-254.839467a34.133333 34.133333 0 0 1-10.069334-33.9968l0.802134-2.6112 51.985066-147.694933zM574.1056 644.642133a34.133333 34.133333 0 0 1 40.669867 22.3744l0.7168 2.4576 41.4208 165.649067a34.133333 34.133333 0 0 1-26.0096 41.659733l-2.474667 0.443734-257.416533 35.242666a34.133333 34.133333 0 0 1-38.3488-39.185066l0.477866-2.389334 41.403734-177.390933a34.133333 34.133333 0 0 1 66.9696 13.0048l-0.494934 2.5088-30.122666 129.0752 170.5472-23.3472-32.187734-128.7168a34.133333 34.133333 0 0 1 22.391467-40.686933l2.4576-0.699734z" fill="#444444" p-id="4069"></path><path d="M287.778133 410.9312a34.133333 34.133333 0 0 1 14.779734 66.594133l-2.474667 0.546134-85.486933 15.650133 203.144533 171.298133 158.1568-26.129066a34.133333 34.133333 0 0 1 38.741333 25.6l0.512 2.5088a34.133333 34.133333 0 0 1-25.617066 38.741333l-2.5088 0.512-173.687467 28.672a34.133333 34.133333 0 0 1-25.207467-5.751467l-2.3552-1.826133L115.3024 499.285333c-21.367467-18.0224-13.090133-52.241067 13.243733-59.0848l2.6112-0.580266 156.6208-28.689067z" fill="#444444" p-id="4070"></path><path d="M105.1136 464.810667a34.133333 34.133333 0 0 1 65.194667 20.104533l-0.802134 2.56-44.475733 126.293333L389.307733 853.333333a34.133333 34.133333 0 0 1 4.2496 45.943467l-1.877333 2.269867a34.133333 34.133333 0 0 1-45.960533 4.2496l-2.269867-1.877334-281.053867-254.805333a34.133333 34.133333 0 0 1-10.069333-34.030933l0.802133-2.594134 51.985067-147.694933z" fill="#444444" p-id="4071"></path><path d="M920.900267 600.029867l-161.399467 21.674666a34.133333 34.133333 0 0 0-29.2864 29.269334l-22.186667 163.9936a34.133333 34.133333 0 0 0 38.792534 38.3488l221.866666-32.597334a34.133333 34.133333 0 0 0 28.16-42.0352l-38.280533-153.105066a34.133333 34.133333 0 0 0-37.666133-25.5488z m-21.162667 71.697066l21.725867 86.9376-139.707734 20.514134 12.629334-93.2864 105.352533-14.165334z" fill="#00B386" p-id="4072"></path></svg>