<?xml version="1.0" standalone="no"?><!DOCTYPE svg PUBLIC "-//W3C//DTD SVG 1.1//EN" "http://www.w3.org/Graphics/SVG/1.1/DTD/svg11.dtd"><svg t="1617799275335" class="icon" viewBox="0 0 1024 1024" version="1.1" xmlns="http://www.w3.org/2000/svg" p-id="3235" xmlns:xlink="http://www.w3.org/1999/xlink" width="200" height="200"><defs><style type="text/css"></style></defs><path d="M328.8576 539.136c14.830933 76.4416 7.850667 132.744533-13.192533 180.599467l-2.679467 5.905066c-4.539733 9.591467-9.557333 18.295467-17.8688 31.556267l-11.4688 18.1248c-11.093333 17.834667-16.008533 27.528533-19.370667 38.7072-11.588267 38.7072 12.680533 86.647467 50.8928 100.522667 38.229333 13.892267 87.671467-7.0144 104.618667-44.270934 12.032-26.385067 10.274133-60.791467-4.266667-91.5456-11.3152-23.944533-29.832533-46.165333-54.613333-66.389333l-5.393067-4.3008 41.898667-53.896533c35.396267 27.511467 62.737067 59.221333 79.837867 95.402666 22.698667 48.042667 25.514667 103.253333 4.676266 149.009067-31.658667 69.597867-118.306133 106.257067-190.071466 80.162133-72.1408-26.197333-114.961067-110.830933-92.962134-184.285866 5.819733-19.456 13.2096-33.621333 29.064534-58.794667l10.871466-17.2032c6.519467-10.478933 10.1888-17.066667 13.397334-24.064l0.955733-2.116267c14.967467-34.065067 20.3776-74.496 9.9328-133.256533l-1.28-6.8608 67.0208-13.0048z" fill="#00B386" p-id="3236"></path><path d="M400.145067 104.260267L157.661867 346.709333a95.0784 95.0784 0 0 0 0 134.485334 87.4496 87.4496 0 0 0 123.733333-0.017067L529.237333 233.301333a87.466667 87.466667 0 0 0 0-123.6992l-5.376-5.376a87.466667 87.466667 0 0 0-123.733333 0z m75.434666 48.247466l5.376 5.376c7.509333 7.509333 7.509333 19.6608 0 27.170134L233.096533 432.913067c-7.509333 7.509333-19.6608 7.509333-27.136 0a26.8288 26.8288 0 0 1-0.017066-37.9392L448.426667 152.507733c7.509333-7.509333 19.643733-7.509333 27.153066 0z" fill="#444444" p-id="3237"></path><path d="M480.955733 185.070933L238.506667 427.52a95.0272 95.0272 0 0 0 0 134.485333 87.4496 87.4496 0 0 0 123.6992-0.017066l247.8592-247.842134a87.5008 87.5008 0 0 0 0-123.716266l-5.393067-5.393067a87.466667 87.466667 0 0 0-123.716267 0z m75.434667 48.264534l5.410133 5.393066a19.217067 19.217067 0 0 1-0.017066 27.170134L313.941333 513.706667c-7.509333 7.509333-19.6608 7.509333-27.153066 0a26.7776 26.7776 0 0 1-0.034134-37.888L529.237333 233.301333c7.509333-7.509333 19.6608-7.509333 27.170134 0zM264.96 76.834133l-134.7072 134.690134a95.0784 95.0784 0 0 0 0 134.485333 87.4496 87.4496 0 0 0 123.716267 0l140.0832-140.0832a87.483733 87.483733 0 0 0 0-123.733333l-5.376-5.376a87.466667 87.466667 0 0 0-123.733334 0.017066z m75.434667 48.264534l5.376 5.376c7.509333 7.509333 7.509333 19.677867 0 27.170133l-140.0832 140.0832c-7.509333 7.509333-19.6608 7.509333-27.136 0.017067a26.811733 26.811733 0 0 1-0.017067-37.9392l134.7072-134.7072c7.509333-7.509333 19.6608-7.509333 27.153067 0z" fill="#444444" p-id="3238"></path><path d="M507.904 319.7952l-134.7072 134.656a95.146667 95.146667 0 0 0-0.017067 134.485333 87.466667 87.466667 0 0 0 123.733334 0.017067l140.0832-140.100267a87.466667 87.466667 0 0 0 0-123.6992l-5.376-5.376a87.466667 87.466667 0 0 0-123.733334 0.017067z m75.434667 48.247467l5.393066 5.376c7.509333 7.509333 7.509333 19.6608 0 27.170133l-140.117333 140.100267c-7.509333 7.509333-19.626667 7.509333-27.136 0a26.862933 26.862933 0 0 1 0-37.973334l134.7072-134.656c7.509333-7.509333 19.6608-7.509333 27.170133 0z" fill="#444444" p-id="3239"></path><path d="M563.080533 442.624a34.133333 34.133333 0 0 1 46.097067-1.9968l2.167467 1.9968 280.7808 280.7808c31.829333 31.829333 28.8768 84.036267-3.857067 116.804267-31.744 31.761067-81.8176 35.498667-113.8688 6.673066l-2.952533-2.798933L490.666667 563.3024a34.133333 34.133333 0 0 1 46.097066-50.261333l2.167467 1.9968 280.746667 280.763733c3.908267 3.8912 13.056 3.3792 20.2752-3.857067 6.690133-6.690133 7.645867-15.0016 4.7104-19.285333l-0.8192-0.989867-280.7808-280.7808a34.133333 34.133333 0 0 1 0-48.264533z" fill="#444444" p-id="3240"></path></svg>