<?xml version="1.0" standalone="no"?><!DOCTYPE svg PUBLIC "-//W3C//DTD SVG 1.1//EN" "http://www.w3.org/Graphics/SVG/1.1/DTD/svg11.dtd"><svg t="1617806412995" class="icon" viewBox="0 0 1024 1024" version="1.1" xmlns="http://www.w3.org/2000/svg" p-id="20043" xmlns:xlink="http://www.w3.org/1999/xlink" width="200" height="200"><defs><style type="text/css"></style></defs><path d="M997.739 902.976a29.557 29.557 0 0 0-39.616-6.645L439.989 221.227l5.654-4.31a30.87 30.87 0 0 0 6.602-41.941c19.051-34.123 26.774-74.539 21.963-118.816a57.013 57.013 0 0 0-113.344 12.299c2.741 25.269-1.75 44.725-13.728 59.541-21.195 26.25-63.435 35.893-78.901 37.461C69.013 188.15 18.859 319.563 20.16 385.856a57.013 57.013 0 0 0 58.112 55.893 57.035 57.035 0 0 0 55.84-58.122c-0.01-0.875 0-88.107 145.59-104.704 2.41-0.246 9.493-1.003 19.509-2.891 1.034 3.563 2.656 6.997 5.066 10.187a30.88 30.88 0 0 0 43.296 5.728l1.899-1.44 517.195 675.765a29.59 29.59 0 0 0-4.694 40.79 29.739 29.739 0 0 0 41.632 5.546l88.662-67.979a29.739 29.739 0 0 0 5.472-41.653z" p-id="20044"></path></svg>