<?xml version="1.0" standalone="no"?><!DOCTYPE svg PUBLIC "-//W3C//DTD SVG 1.1//EN" "http://www.w3.org/Graphics/SVG/1.1/DTD/svg11.dtd"><svg t="1617806043178" class="icon" viewBox="0 0 1024 1024" version="1.1" xmlns="http://www.w3.org/2000/svg" p-id="19149" xmlns:xlink="http://www.w3.org/1999/xlink" width="200" height="200"><defs><style type="text/css"></style></defs><path d="M572 73.1l4.4 0.1c74.2 10.9 142.4 40.1 200.1 82.7 8.5 6.6 9.2 19.3 1.6 26.9l-38.3 38.3c-6 6.2-15.5 6.7-22.6 1.7-42.8-30.4-92.4-51.4-146.1-60.6-8.5-1.4-14.8-8.5-14.8-17.1V90.9c0-10.7 9.7-19.3 20.2-17.8H572z m-124.7 0c10.5-1.7 20.2 7.1 20.2 17.8v54.4c0 8.6-6.4 15.7-14.8 17.1-53.9 9-103.4 30.2-146.1 60.6-7.1 5-16.6 4.3-22.6-1.7l-38.2-38.2c-7.6-7.6-7.1-20.5 1.6-26.9 57.5-43 125.7-72.2 199.9-83.1z m393.3 172.7c7.6-7.8 20.5-7.1 26.9 1.6 42.8 57.5 72.2 125.9 83.1 199.9 1.7 10.5-7.1 20.2-17.8 20.2h-54.2c-8.6 0-15.7-6.4-17.1-14.8-9.2-53.7-30.4-103.2-60.8-146.1-5-7.1-4.3-16.6 1.7-22.6l38.2-38.2zM156 247.3c6.6-8.5 19.3-9.2 26.9-1.6l38.2 38.2c6.2 6 6.7 15.5 1.7 22.6-30.4 42.8-51.5 92.4-60.6 146.1-1.4 8.5-8.5 14.8-17.1 14.8H90.9c-10.7 0-19.3-9.7-17.8-20.2C84 373 113.2 304.8 156 247.3z m355.9 87.1c98 0 177.5 79.5 177.5 177.5s-79.5 177.5-177.5 177.5-177.5-79.5-177.5-177.5 79.5-177.5 177.5-177.5z m420.9 221.8c10.7 0 19.3 9.7 18.1 20.2-10.9 74.2-40.2 142.4-83.1 199.9-6.6 8.6-19.3 9.3-26.9 1.7l-38.3-38.3c-6.2-6-6.7-15.5-1.7-22.6 30.4-42.8 51.5-92.4 60.6-146.1 1.4-8.5 8.5-14.8 17.1-14.8h54.2z m-787.7 0c8.6 0 15.7 6.4 17.1 14.8 9.2 53.7 30.4 103.2 60.8 146.1 5 7.1 4.3 16.6-1.7 22.6L183.1 778c-7.6 7.6-20.5 6.9-26.9-1.7-42.8-57.4-72.2-125.8-83.1-199.9-1.7-10.5 7.1-20.2 17.8-20.2h54.2z m572.1 244.5c7.1-5 16.6-4.3 22.6 1.7l38.2 38c7.8 7.6 7.1 20.5-1.6 26.9-57.5 42.8-125.9 72.2-199.9 83-10.5 1.6-20.2-7.1-20.2-17.8v-54.2c0-8.6 6.4-15.7 14.8-17.1 53.9-8.9 103.4-30.1 146.1-60.5zM284 802.6c6-6.2 15.5-6.7 22.6-1.7 42.8 30.4 92.4 51.4 146.1 60.6 8.5 1.4 14.8 8.5 14.7 17.4v54.2c0 10.7-9.5 19.3-20.2 17.8-74.2-10.9-142.4-40.2-199.9-83-8.5-6.6-9.2-19.3-1.6-26.9l38.3-38.4z" p-id="19150"></path></svg>