<?xml version="1.0" standalone="no"?><!DOCTYPE svg PUBLIC "-//W3C//DTD SVG 1.1//EN" "http://www.w3.org/Graphics/SVG/1.1/DTD/svg11.dtd"><svg t="1617806487370" class="icon" viewBox="0 0 1024 1024" version="1.1" xmlns="http://www.w3.org/2000/svg" p-id="21525" xmlns:xlink="http://www.w3.org/1999/xlink" width="200" height="200"><defs><style type="text/css"></style></defs><path d="M971.24352 231.08608C937.59488 150.21056 872.27392 84.80768 791.9616 51.61984c-41.0624-16.56832-83.5584-24.96512-126.30016-24.96512-47.31904 0-95.29344 10.56768-139.14112 30.78144-6.25664 3.4304-37.60128 20.62336-40.31488 22.34368-12.56448 8.16128-16.19968 24.51456-8.20224 37.33504 8.05888 12.38016 24.36096 15.9232 37.1712 8.04864l0.1536-0.09216c44.032-28.68224 97.4336-44.47232 150.34368-44.47232 37.82656 0 73.4208 7.07584 105.8816 21.07392 67.1232 27.67872 121.83552 82.41152 150.10816 150.1184 13.68064 33.57696 20.62336 69.12 20.62336 105.6768 0 40.43776-8.64256 80.66048-24.87296 116.06016-4.99712 9.79968-11.71456 22.54848-19.29216 34.18112-3.85024 5.69344-5.20192 13.07648-3.69664 20.25472 1.51552 7.22944 5.76512 13.50656 11.58144 17.16224 4.49536 2.92864 9.54368 4.34176 14.56128 4.34176 8.67328 0 17.27488-4.22912 22.84544-12.14464 9.76896-15.616 16.92672-28.70272 22.48704-41.1136 19.84512-42.76224 30.33088-90.73664 30.33088-138.73152 0-44.61568-8.41728-87.1424-24.9856-126.39232z" p-id="21526"></path><path d="M501.2992 647.07584l110.27456-178.67776c14.2336 6.13376 30.0032 9.46176 45.07648 9.46176 28.89728 0 56.76032-11.66336 78.47936-32.8704 20.62336-20.36736 32.44032-48.97792 32.44032-78.51008 0-29.66528-11.52-57.37472-32.4096-78.01856-19.54816-19.54816-44.75904-31.00672-71.60832-32.68608v-0.43008h-6.90176c-29.42976 0-58.04032 11.7248-78.47936 32.17408-21.21728 21.21728-32.90112 49.2544-32.90112 78.96064 0 15.4112 3.31776 30.6176 9.8816 45.312l-179.33312 109.568-241.17248-240.70144c-3.04128-3.072-7.18848-6.12352-11.89888-8.61184-20.52096-8.8576-44.3904 0.43008-53.20704 20.59264-56.41216 125.62432-55.6544 266.17856 2.12992 395.79648 55.61344 123.99616 158.23872 226.60096 281.56928 281.52832 65.7408 29.184 134.2976 43.79648 202.27072 43.79648 64.93184 0 129.3312-13.33248 190.18752-40.02816 6.49216-1.95584 11.9296-5.36576 15.7696-9.89184 7.59808-7.58784 11.78624-17.62304 11.79648-28.28288 0-10.79296-4.27008-20.9408-12.00128-28.53888L501.2992 647.07584z m155.35104-337.57184c15.04256 0 29.72672 5.94944 40.15104 16.16896 10.69056 11.1104 16.82432 25.98912 16.82432 40.8064 0 15.13472-5.9392 29.42976-16.82432 40.32512-10.33216 10.74176-24.96512 16.896-40.15104 16.896-15.50336 0-29.952-6.02112-40.71424-16.9984-10.63936-10.63936-16.50688-24.9344-16.50688-40.22272 0-14.99136 6.05184-29.85984 16.40448-40.62208 10.97728-10.5472 25.47712-16.35328 40.81664-16.35328z m-242.176 250.96192l117.63712-69.45792-69.45792 117.43232-48.1792-47.9744z m-28.0576 336.36352C280.34048 849.19296 192.4608 761.32352 145.3056 655.73888c-40.07936-89.50784-47.9232-183.82848-22.90688-273.57184l537.27232 537.2928c-89.63072 24.64768-183.84896 16.896-273.2544-22.6304z" p-id="21527"></path><path d="M844.6976 282.7776c-9.75872-23.42912-23.76704-44.35968-41.63584-62.23872-18.19648-18.16576-39.96672-32.96256-63.16032-42.8544-24.32-9.46176-49.3056-14.25408-74.22976-14.25408-6.35904 0-12.25728 0.31744-18.00192 0.95232l-1.04448 0.01024c-13.5168 1.06496-26.50112 4.31104-37.41696 7.35232l-0.64512 0.21504c-1.98656 0.768-3.92192 1.46432-5.81632 2.12992-4.01408 1.4336-7.82336 2.78528-11.60192 4.6592-6.57408 2.64192-11.70432 7.6288-14.45888 14.09024-2.82624 6.63552-2.82624 14.00832-0.03072 20.70528 2.79552 6.83008 8.05888 12.11392 14.83776 14.87872 6.74816 2.7648 14.16192 2.68288 20.87936-0.21504 12.55424-5.40672 25.43616-8.81664 39.04512-10.38336 2.11968 0 4.3008-0.1024 6.6048-0.21504 2.36544-0.12288 4.88448-0.24576 7.64928-0.24576 18.40128 0 36.94592 3.67616 53.61664 10.62912 16.93696 7.09632 32.65536 17.73568 45.568 30.85312 13.32224 13.07648 23.68512 28.5696 29.96224 44.81024l0.52224 1.35168 0.512 0.512c13.3632 34.02752 13.03552 72.48896-0.99328 105.8304-2.79552 6.8608-2.7648 14.26432 0.08192 20.84864a26.01984 26.01984 0 0 0 14.57152 13.98784c3.3792 1.41312 6.93248 2.11968 10.48576 2.11968 3.44064 0 6.88128-0.65536 10.16832-1.98656 6.71744-2.7136 11.96032-7.86432 14.82752-14.7456 1.06496-2.85696 2.08896-5.71392 3.09248-8.57088 1.00352-2.83648 2.01728-5.6832 3.23584-8.96 12.8512-42.60864 10.752-88.76032-5.92896-129.95584l-0.69632-1.31072z" p-id="21528"></path></svg>