<?xml version="1.0" standalone="no"?><!DOCTYPE svg PUBLIC "-//W3C//DTD SVG 1.1//EN" "http://www.w3.org/Graphics/SVG/1.1/DTD/svg11.dtd"><svg t="1617801838315" class="icon" viewBox="0 0 1024 1024" version="1.1" xmlns="http://www.w3.org/2000/svg" p-id="15030" xmlns:xlink="http://www.w3.org/1999/xlink" width="200" height="200"><defs><style type="text/css"></style></defs><path d="M847.872 481.28l-40.96 45.056 40.96 47.104q4.096 4.096-1.024 9.216-1.024 1.024-4.096 1.024t-5.12-2.048l-38.912-45.056-39.936 45.056q-2.048 2.048-4.096 2.048-3.072 0-5.12-1.024-4.096-5.12 0-9.216l39.936-47.104-39.936-45.056q-4.096-5.12 0-9.216 6.144-4.096 9.216 1.024l39.936 44.032 38.912-44.032q3.072-5.12 9.216-1.024 5.12 3.072 1.024 9.216zM437.248 1024l-13.312-14.336q53.248-37.888 96.768-87.04t75.264-107.008 50.688-122.88 22.016-134.656q0-11.264 10.24-9.216 9.216 0 9.216 9.216-4.096 72.704-23.552 139.264t-51.712 125.952-76.8 110.08-98.816 90.624zM678.912 498.688q-10.24 2.048-10.24-8.192-1.024-12.288-2.048-24.064t-3.072-23.04q-9.216-68.608-33.792-131.072t-61.44-116.736-84.48-99.84-103.936-79.36l9.216-16.384q116.736 70.656 195.072 184.832t98.816 256.512q2.048 11.264 2.56 23.552t1.536 24.576q2.048 9.216-8.192 9.216z" p-id="15031"></path></svg>