<?xml version="1.0" standalone="no"?><!DOCTYPE svg PUBLIC "-//W3C//DTD SVG 1.1//EN" "http://www.w3.org/Graphics/SVG/1.1/DTD/svg11.dtd"><svg t="1617801573771" class="icon" viewBox="0 0 1024 1024" version="1.1" xmlns="http://www.w3.org/2000/svg" p-id="2793" xmlns:xlink="http://www.w3.org/1999/xlink" width="200" height="200"><defs><style type="text/css"></style></defs><path d="M932.266667 328.533333L695.466667 91.733333c-4.266667-4.266667-10.666667-6.4-14.933334-6.4H343.466667c-6.4 0-10.666667 2.133333-14.933334 6.4L91.733333 328.533333c-4.266667 4.266667-6.4 10.666667-6.4 14.933334v334.933333c0 6.4 2.133333 10.666667 6.4 14.933333l236.8 236.8c4.266667 4.266667 8.533333 6.4 14.933334 6.4h334.933333c6.4 0 10.666667-2.133333 14.933333-6.4l236.8-236.8c4.266667-4.266667 6.4-8.533333 6.4-14.933333V343.466667c2.133333-4.266667 0-10.666667-4.266666-14.933334zM896 672L672 896h-320L128 672v-320L352 128h317.866667L896 352v320z" p-id="2794"></path><path d="M635.733333 192H388.266667c-6.4 0-10.666667 2.133333-14.933334 6.4l-174.933333 174.933333c-4.266667 4.266667-6.4 8.533333-6.4 14.933334v247.466666c0 6.4 2.133333 10.666667 6.4 14.933334l53.333333 53.333333c4.266667 4.266667 10.666667 6.4 14.933334 6.4s10.666667-2.133333 14.933333-6.4L704 281.6c8.533333-8.533333 8.533333-21.333333 0-29.866667l-53.333333-53.333333c-4.266667-4.266667-8.533333-6.4-14.933334-6.4zM266.666667 657.066667L234.666667 627.2V396.8l162.133333-162.133333h230.4l32 32-392.533333 390.4zM315.733333 757.333333c0 6.4 2.133333 10.666667 6.4 14.933334l53.333334 53.333333c4.266667 4.266667 8.533333 6.4 14.933333 6.4h247.466667c6.4 0 10.666667-2.133333 14.933333-6.4l174.933333-174.933333c4.266667-4.266667 6.4-8.533333 6.4-14.933334V388.266667c0-6.4-2.133333-10.666667-6.4-14.933334L774.4 320c-8.533333-8.533333-21.333333-8.533333-29.866667 0L320 742.4c-2.133333 4.266667-4.266667 10.666667-4.266667 14.933333z m441.6-390.4l32 32v230.4L627.2 789.333333H396.8l-32-32 392.533333-390.4z" p-id="2795"></path></svg>