<?xml version="1.0" standalone="no"?><!DOCTYPE svg PUBLIC "-//W3C//DTD SVG 1.1//EN" "http://www.w3.org/Graphics/SVG/1.1/DTD/svg11.dtd"><svg t="1617801975970" class="icon" viewBox="0 0 1024 1024" version="1.1" xmlns="http://www.w3.org/2000/svg" p-id="3057" xmlns:xlink="http://www.w3.org/1999/xlink" width="200" height="200"><defs><style type="text/css"></style></defs><path d="M979.2 482.133333l-96-192c-4.266667-6.4-10.666667-12.8-19.2-12.8h-119.466667l-85.333333-160c-4.266667-6.4-10.666667-10.666667-19.2-10.666666H384c-8.533333 0-14.933333 4.266667-19.2 10.666666L273.066667 277.333333H160c-8.533333 0-14.933333 4.266667-19.2 12.8l-96 192c-2.133333 6.4-2.133333 12.8 0 19.2l96 192c4.266667 6.4 10.666667 10.666667 19.2 10.666667H298.666667v81.066667c0 8.533333 4.266667 14.933333 10.666666 19.2l192 110.933333c4.266667 2.133333 6.4 2.133333 10.666667 2.133333s6.4 0 10.666667-2.133333l192-110.933333c6.4-4.266667 10.666667-10.666667 10.666666-19.2V704h138.666667c8.533333 0 14.933333-4.266667 19.2-12.8l96-192c2.133333-4.266667 2.133333-12.8 0-17.066667zM682.666667 772.266667l-170.666667 100.266666-170.666667-100.266666v-200.533334l170.666667-100.266666 170.666667 100.266666v200.533334z m168.533333-110.933334H725.333333v-102.4c0-8.533333-4.266667-14.933333-10.666666-19.2l-192-110.933333c-6.4-4.266667-14.933333-4.266667-21.333334 0l-192 110.933333c-6.4 4.266667-10.666667 10.666667-10.666666 19.2V661.333333H172.8l-85.333333-170.666666 85.333333-170.666667h113.066667c8.533333 0 14.933333-4.266667 19.2-10.666667L396.8 149.333333h230.4l85.333333 160c4.266667 6.4 10.666667 10.666667 19.2 10.666667h119.466667l85.333333 170.666667-85.333333 170.666666z m-349.866667-98.133333L384 637.866667l23.466667 36.266666 85.333333-53.333333V789.333333h42.666667v-168.533333l85.333333 53.333333 23.466667-36.266666-117.333334-74.666667c-10.666667-4.266667-19.2-4.266667-25.6 0z" p-id="3058"></path></svg>