<?xml version="1.0" standalone="no"?><!DOCTYPE svg PUBLIC "-//W3C//DTD SVG 1.1//EN" "http://www.w3.org/Graphics/SVG/1.1/DTD/svg11.dtd"><svg t="1617801712183" class="icon" viewBox="0 0 1024 1024" version="1.1" xmlns="http://www.w3.org/2000/svg" p-id="14818" xmlns:xlink="http://www.w3.org/1999/xlink" width="200" height="200"><defs><style type="text/css"></style></defs><path d="M825.4 139.8H197.3c-74.4 0-135 60.5-135 135v475.4c0 71.7 56.3 130.4 127 134.6 2.6 0.2 5.3 0.4 7.9 0.4h628.1c26.5 0 51.1-7.8 71.9-21 5.6-3.5 10.8-7.4 15.8-11.7 28.9-24.8 47.2-61.4 47.2-102.3V274.8c0.2-74.4-60.4-135-134.8-135zM494.6 831.2H197.3c-11 0-21.5-2.3-31.1-6.3-8.4-3.5-16.1-8.4-22.8-14.4-16.6-14.8-27-36.3-27-60.2V274.8c0-44.7 36.3-81 81-81h288.3l290.5 637.4H494.6z m411.8-81c0 20.9-8 39.9-21 54.2-6.1 6.8-13.4 12.4-21.5 16.8-9.4 5.1-19.9 8.4-31.1 9.4-0.1-3.6-0.8-7.2-2.4-10.7L544.9 193.8h63l179.8 394.4c4.5 9.9 14.3 15.8 24.6 15.8 3.7 0 7.5-0.8 11.2-2.4 13.6-6.2 19.6-22.2 13.4-35.8l-169.6-372h158.1c44.7 0 81 36.3 81 81v475.4z" fill="#4D4D4D" p-id="14819"></path></svg>