<?xml version="1.0" standalone="no"?><!DOCTYPE svg PUBLIC "-//W3C//DTD SVG 1.1//EN" "http://www.w3.org/Graphics/SVG/1.1/DTD/svg11.dtd"><svg t="1617801915279" class="icon" viewBox="0 0 1024 1024" version="1.1" xmlns="http://www.w3.org/2000/svg" p-id="2925" xmlns:xlink="http://www.w3.org/1999/xlink" width="200" height="200"><defs><style type="text/css"></style></defs><path d="M910.933333 305.066667l-213.333333-213.333334c-2.133333-4.266667-8.533333-6.4-14.933333-6.4H384c-6.4 0-10.666667 2.133333-14.933333 6.4l-213.333334 213.333334c-4.266667 2.133333-6.4 8.533333-6.4 14.933333v298.666667c0 6.4 2.133333 10.666667 6.4 14.933333l177.066667 177.066667H298.666667c-6.4 0-10.666667 2.133333-14.933334 6.4s-6.4 8.533333-6.4 14.933333v85.333333c0 12.8 8.533333 21.333333 21.333334 21.333334h469.333333c12.8 0 21.333333-8.533333 21.333333-21.333334v-85.333333c0-6.4-2.133333-10.666667-6.4-14.933333s-8.533333-6.4-14.933333-6.4h-32l177.066667-177.066667c4.266667-4.266667 6.4-8.533333 6.4-14.933333V320c-2.133333-6.4-4.266667-12.8-8.533334-14.933333zM874.666667 610.133333l-206.933334 206.933334c-6.4 6.4-6.4 14.933333-4.266666 23.466666s10.666667 12.8 19.2 12.8h64v42.666667H320v-42.666667h64c8.533333 0 17.066667-4.266667 19.2-12.8s2.133333-17.066667-4.266667-23.466666L192 610.133333V328.533333L392.533333 128h283.733334l200.533333 200.533333v281.6z" p-id="2926"></path><path d="M512 362.666667h42.666667v384h-42.666667zM598.634667 739.264l127.786666-362.112 40.256 14.208-127.786666 362.112zM299.968 391.381333l40.234667-14.186666 127.786666 362.112-40.213333 14.186666z" p-id="2927"></path></svg>